<svg width="75" height="79" viewBox="0 0 75 79" fill="none" xmlns="http://www.w3.org/2000/svg">
<path d="M18.75 72.3845H56.25C56.8063 72.3845 57.3375 72.2868 57.85 72.1434L46.1031 59.8939C43.555 61.6639 40.5617 62.6084 37.5 62.6084C28.8844 62.6084 21.875 55.2991 21.875 46.3149C21.875 37.3306 28.8844 30.0214 37.5 30.0214C46.1156 30.0214 53.125 37.3306 53.125 46.3149C53.1253 49.5077 52.2196 52.6291 50.5219 55.2861L62.2688 67.5356C62.4063 67.0011 62.5 66.4472 62.5 65.8671V26.7627L43.75 7.21045H18.75C17.0924 7.21045 15.5027 7.8971 14.3306 9.11935C13.1585 10.3416 12.5 11.9993 12.5 13.7279V65.8671C12.5 67.5956 13.1585 69.2534 14.3306 70.4756C15.5027 71.6979 17.0924 72.3845 18.75 72.3845Z" fill="#F185AD"/>
<path d="M37.5 56.0908C42.6777 56.0908 46.875 51.7139 46.875 46.3147C46.875 40.9155 42.6777 36.5386 37.5 36.5386C32.3223 36.5386 28.125 40.9155 28.125 46.3147C28.125 51.7139 32.3223 56.0908 37.5 56.0908Z" fill="#F185AD"/>
</svg>
