<svg width="63" height="60" viewBox="0 0 63 60" fill="none" xmlns="http://www.w3.org/2000/svg">
<path d="M31.5 31.5C40.2019 31.5 47.25 24.4519 47.25 15.75C47.25 7.04813 40.2019 0 31.5 0C22.7981 0 15.75 7.04813 15.75 15.75C15.75 24.4519 22.7981 31.5 31.5 31.5Z" fill="#EE65C7"/>
<path fill-rule="evenodd" clip-rule="evenodd" d="M14.757 44.5226C13.2531 45.4459 12.25 47.1058 12.25 49C12.25 51.8994 14.6004 54.25 17.5 54.25C20.3996 54.25 22.75 51.8994 22.75 49C22.75 46.3328 20.7613 44.1303 18.1858 43.7943C18.1284 43.5888 18.0686 43.3519 18.0077 43.0859C17.798 42.1699 17.598 41.0081 17.4491 39.8144C17.2998 38.6188 17.2072 37.4332 17.2011 36.4655C17.1988 36.1109 17.2085 35.8019 17.2281 35.5427C17.9013 35.3495 18.5764 35.1754 19.25 35.0221C20.0223 34.8462 20.4794 35.7578 20.8497 36.4964C20.9013 36.5992 20.9512 36.6987 21 36.7915H28.1118C29.7145 36.7911 30.5067 36.7913 31.308 36.7915C32.091 36.7917 32.8836 36.7918 34.4489 36.7915H41.5613C41.9606 36.0327 42.8701 34.8217 43.75 35.0221C44.6885 35.2357 45.6304 35.4895 46.5656 35.7796L46.5598 35.7826C46.5577 35.7786 46.5579 35.7793 46.56 35.7851C46.5682 35.8097 46.6067 35.924 46.6449 36.1722C46.6884 36.4548 46.7187 36.8219 46.7311 37.2638C46.756 38.1465 46.7064 39.2193 46.602 40.3001C46.4973 41.3798 46.3419 42.4251 46.1669 43.25C46.1283 43.4327 46.0896 43.5997 46.0516 43.75H43.75C43.0871 43.75 42.4813 44.1245 42.1848 44.7174L40.4348 48.2174C40.3132 48.4603 40.25 48.7282 40.25 49V52.5C40.25 53.4665 41.0335 54.25 42 54.25H45.5V50.75H43.75V49.413L44.8315 47.25H49.6685L50.75 49.413V50.75H49V54.25H52.5C53.4665 54.25 54.25 53.4665 54.25 52.5V49C54.25 48.7282 54.1868 48.4603 54.0652 48.2174L52.3152 44.7174C52.0188 44.1245 51.4129 43.75 50.75 43.75H49.6375C49.8244 42.8178 49.98 41.7284 50.0855 40.6373C50.1998 39.4578 50.2597 38.2337 50.2297 37.1658L50.2283 37.1177C57.2066 40.0659 63 44.9157 63 49.9973V59.5H0V49.9973C0 44.6908 6.31738 39.6373 13.7043 36.7378C13.7242 37.8256 13.8273 39.0569 13.9759 40.2479C14.1363 41.5335 14.3551 42.8143 14.5961 43.8671C14.6477 44.0927 14.7014 44.3123 14.757 44.5226ZM17.5 50.7757C18.4422 50.7757 19.25 50.0049 19.25 49C19.25 47.995 18.4422 47.2243 17.5 47.2243C16.5578 47.2243 15.75 47.995 15.75 49C15.75 50.0049 16.5578 50.7757 17.5 50.7757Z" fill="#EE65C7"/>
<mask id="mask0_184_127" style="mask-type:luminance" maskUnits="userSpaceOnUse" x="0" y="35" width="63" height="25">
<path fill-rule="evenodd" clip-rule="evenodd" d="M14.757 44.5226C13.2531 45.4459 12.25 47.1058 12.25 49C12.25 51.8994 14.6004 54.25 17.5 54.25C20.3996 54.25 22.75 51.8994 22.75 49C22.75 46.3328 20.7613 44.1303 18.1858 43.7943C18.1284 43.5888 18.0686 43.3519 18.0077 43.0859C17.798 42.1699 17.598 41.0081 17.4491 39.8144C17.2998 38.6188 17.2072 37.4332 17.2011 36.4655C17.1988 36.1109 17.2085 35.8019 17.2281 35.5427C17.9013 35.3495 18.5764 35.1754 19.25 35.0221C20.0223 34.8462 20.4794 35.7578 20.8497 36.4964C20.9013 36.5992 20.9512 36.6987 21 36.7915H28.1118C29.7145 36.7911 30.5067 36.7913 31.308 36.7915C32.091 36.7917 32.8836 36.7918 34.4489 36.7915H41.5613C41.9606 36.0327 42.8701 34.8217 43.75 35.0221C44.6885 35.2357 45.6304 35.4895 46.5656 35.7796L46.5598 35.7826C46.5577 35.7786 46.5579 35.7793 46.56 35.7851C46.5682 35.8097 46.6067 35.924 46.6449 36.1722C46.6884 36.4548 46.7187 36.8219 46.7311 37.2638C46.756 38.1465 46.7064 39.2193 46.602 40.3001C46.4973 41.3798 46.3419 42.4251 46.1669 43.25C46.1283 43.4327 46.0896 43.5997 46.0516 43.75H43.75C43.0871 43.75 42.4813 44.1245 42.1848 44.7174L40.4348 48.2174C40.3132 48.4603 40.25 48.7282 40.25 49V52.5C40.25 53.4665 41.0335 54.25 42 54.25H45.5V50.75H43.75V49.413L44.8315 47.25H49.6685L50.75 49.413V50.75H49V54.25H52.5C53.4665 54.25 54.25 53.4665 54.25 52.5V49C54.25 48.7282 54.1868 48.4603 54.0652 48.2174L52.3152 44.7174C52.0188 44.1245 51.4129 43.75 50.75 43.75H49.6375C49.8244 42.8178 49.98 41.7284 50.0855 40.6373C50.1998 39.4578 50.2597 38.2337 50.2297 37.1658L50.2283 37.1177C57.2066 40.0659 63 44.9157 63 49.9973V59.5H0V49.9973C0 44.6908 6.31738 39.6373 13.7043 36.7378C13.7242 37.8256 13.8273 39.0569 13.9759 40.2479C14.1363 41.5335 14.3551 42.8143 14.5961 43.8671C14.6477 44.0927 14.7014 44.3123 14.757 44.5226ZM17.5 50.7757C18.4422 50.7757 19.25 50.0049 19.25 49C19.25 47.995 18.4422 47.2243 17.5 47.2243C16.5578 47.2243 15.75 47.995 15.75 49C15.75 50.0049 16.5578 50.7757 17.5 50.7757Z" fill="white"/>
</mask>
<g mask="url(#mask0_184_127)">
<path d="M14.757 44.5226L16.5882 47.5053L18.8053 46.1442L18.1409 43.6287L14.757 44.5226ZM18.1858 43.7943L14.8146 44.7351L15.4369 46.9654L17.7331 47.2649L18.1858 43.7943ZM17.2281 35.5427L16.2624 32.1785L13.9212 32.8505L13.7379 35.2793L17.2281 35.5427ZM21 36.7915L17.903 38.4219L18.8872 40.2915H21V36.7915ZM41.5613 36.7915V40.2915H43.674L44.6582 38.4219L41.5613 36.7915ZM46.5656 35.7796L48.1308 38.9102L55.9184 35.0166L47.6026 32.4368L46.5656 35.7796ZM46.5598 35.7826L43.4305 37.3504L44.9971 40.477L48.1248 38.9132L46.5598 35.7826ZM46.56 35.785L49.9698 34.9963L49.9315 34.8304L49.8773 34.6691L46.56 35.785ZM46.56 35.785L43.1499 36.5739L43.1888 36.7418L43.2439 36.905L46.56 35.785ZM46.56 35.785L49.8773 34.6691L49.876 34.6652L46.56 35.785ZM46.0516 43.75V47.25H48.7776L49.445 44.607L46.0516 43.75ZM45.5 54.25V57.75H49V54.25H45.5ZM45.5 50.75H49V47.25H45.5V50.75ZM43.75 50.75H40.25V54.25H43.75V50.75ZM43.75 49.413L40.6194 47.8478L40.25 48.5868V49.413H43.75ZM44.8315 47.25V43.75H42.6685L41.7011 45.6846L44.8315 47.25ZM49.6685 47.25L52.7989 45.6846L51.8315 43.75H49.6685V47.25ZM50.75 49.413H54.25V48.5868L53.8806 47.8478L50.75 49.413ZM50.75 50.75V54.25H54.25V50.75H50.75ZM49 50.75V47.25H45.5V50.75H49ZM49 54.25H45.5V57.75H49V54.25ZM49.6375 43.75L46.206 43.0615L45.3658 47.25H49.6375V43.75ZM50.2297 37.1658L53.7283 37.0676V37.0631L50.2297 37.1658ZM50.2283 37.1177L51.5905 33.8936L46.57 31.7723L46.7299 37.2204L50.2283 37.1177ZM63 59.5V63H66.5V59.5H63ZM0 59.5H-3.5V63H0V59.5ZM13.7043 36.7377L17.2037 36.6739L17.112 31.64L12.4253 33.4798L13.7043 36.7377ZM15.75 49C15.75 48.3726 16.0778 47.8187 16.5882 47.5053L12.9257 41.5399C10.4282 43.0733 8.75 45.8391 8.75 49H15.75ZM17.5 50.75C16.5335 50.75 15.75 49.9665 15.75 49H8.75C8.75 53.8324 12.6675 57.75 17.5 57.75V50.75ZM19.25 49C19.25 49.9665 18.4665 50.75 17.5 50.75V57.75C22.3325 57.75 26.25 53.8324 26.25 49H19.25ZM17.7331 47.2649C18.588 47.3765 19.25 48.1136 19.25 49H26.25C26.25 44.552 22.9345 40.8842 18.6385 40.3237L17.7331 47.2649ZM21.557 42.8536C21.517 42.71 21.4704 42.5269 21.4195 42.3048L14.5961 43.8671C14.6669 44.1766 14.7401 44.4677 14.8146 44.7351L21.557 42.8536ZM21.4195 42.3048C21.2411 41.5256 21.0595 40.4826 20.9221 39.3811L13.9759 40.2479C14.1363 41.5334 14.3551 42.8143 14.5961 43.8671L21.4195 42.3048ZM20.9221 39.3811C20.7839 38.273 20.706 37.2319 20.7011 36.4436L13.7013 36.4875C13.7085 37.6344 13.8157 38.9644 13.9759 40.2479L20.9221 39.3811ZM20.7011 36.4436C20.6994 36.1597 20.7074 35.9487 20.7181 35.806L13.7379 35.2793C13.7095 35.655 13.6985 36.0622 13.7013 36.4875L20.7011 36.4436ZM18.4728 31.6094C17.7345 31.7775 16.9965 31.9678 16.2624 32.1785L18.1937 38.9069C18.806 38.731 19.4183 38.5733 20.0272 38.4347L18.4728 31.6094ZM23.9785 34.9275C23.8448 34.661 23.4474 33.8222 22.8515 33.131C22.1876 32.3608 20.6652 31.1103 18.4728 31.6094L20.0272 38.4347C19.4421 38.5679 18.83 38.4926 18.312 38.2545C17.8619 38.0476 17.619 37.782 17.5497 37.7015C17.4748 37.6148 17.4646 37.5812 17.5159 37.6708C17.5662 37.7583 17.6211 37.866 17.721 38.0651L23.9785 34.9275ZM24.097 35.161C24.0674 35.1046 24.0334 35.0373 23.9785 34.9275L17.721 38.0651C17.7692 38.1612 17.835 38.2928 17.903 38.4219L24.097 35.161ZM28.1118 33.2915H21V40.2915H28.1118V33.2915ZM31.3094 33.2915C30.5078 33.2913 29.7152 33.2911 28.1118 33.2915V40.2915C29.7138 40.2911 30.5062 40.2913 31.3073 40.2915L31.3094 33.2915ZM34.4489 33.2915C32.8843 33.2918 32.092 33.2916 31.3094 33.2915L31.3073 40.2915C32.0905 40.2916 32.8835 40.2918 34.4496 40.2915L34.4489 33.2915ZM41.5613 33.2915H34.4489L34.4496 40.2915H41.5613V33.2915ZM44.5272 31.6094C42.2607 31.0933 40.6199 32.4754 40.0491 33.0248C39.316 33.7298 38.7812 34.5586 38.4641 35.161L44.6582 38.4219C44.6864 38.3686 44.7353 38.2863 44.7955 38.202C44.824 38.1621 44.8499 38.1292 44.8711 38.104C44.8927 38.0782 44.9038 38.0677 44.9018 38.0695C44.901 38.0704 44.8758 38.0949 44.824 38.1321C44.7734 38.1685 44.677 38.2322 44.5336 38.297C44.2403 38.4295 43.6744 38.5943 42.9728 38.4347L44.5272 31.6094ZM47.6026 32.4368C46.5843 32.1209 45.5556 31.8437 44.5272 31.6094L42.9728 38.4347C43.8212 38.6279 44.6764 38.8582 45.5285 39.1225L47.6026 32.4368ZM48.1248 38.9132L48.1308 38.9102L45.0004 32.649L44.9946 32.652L48.1248 38.9132ZM49.8773 34.6691C49.8738 34.6587 49.881 34.6801 49.8881 34.7021C49.8913 34.7119 49.9039 34.7506 49.9186 34.8007C49.9257 34.8257 49.9397 34.8747 49.9553 34.937C49.9651 34.9765 50.0029 35.1281 50.0288 35.326C50.0404 35.4149 50.0677 35.6415 50.0551 35.9322C50.0518 36.0061 50.0476 37.051 49.2578 38.0079C48.7408 38.6342 47.9493 39.1398 46.97 39.2556C46.1017 39.3585 45.4262 39.1142 45.076 38.9506C44.4384 38.6526 44.061 38.2342 43.992 38.16C43.7616 37.9113 43.6198 37.6815 43.6034 37.6556C43.5563 37.5812 43.522 37.521 43.5068 37.4939C43.4749 37.437 43.4516 37.3919 43.4465 37.3821C43.4383 37.3658 43.432 37.3532 43.4305 37.3504L49.689 34.2148C49.687 34.2109 49.6802 34.1974 49.6716 34.1805C49.6662 34.17 49.6426 34.1241 49.6106 34.0671C49.5952 34.0396 49.5609 33.9792 49.5136 33.9048C49.497 33.8786 49.3554 33.6488 49.1248 33.4001C49.0558 33.3259 48.6784 32.9075 48.0408 32.6095C47.6907 32.4457 47.015 32.2014 46.1466 32.3043C45.1675 32.4203 44.376 32.9257 43.859 33.5522C43.0692 34.5091 43.0649 35.554 43.0617 35.6279C43.049 35.9186 43.0763 36.1454 43.088 36.2343C43.1139 36.4322 43.1517 36.5839 43.1615 36.6236C43.1771 36.6861 43.191 36.7355 43.1984 36.7605C43.2133 36.8112 43.2261 36.8504 43.2295 36.8613C43.2345 36.8767 43.2387 36.8889 43.2399 36.8928C43.2407 36.8954 43.2415 36.8977 43.2418 36.8987C43.2423 36.9 43.2427 36.901 43.2427 36.9012L49.8773 34.6691ZM50.1041 35.6393C50.0336 35.1809 49.9455 34.8717 49.8773 34.6691L43.2427 36.9012C43.2427 36.9012 43.2379 36.8875 43.2325 36.8702C43.2271 36.8532 43.2217 36.8359 43.2164 36.8184C43.2059 36.7832 43.1982 36.754 43.1926 36.7314C43.1816 36.6868 43.1813 36.6756 43.1858 36.7052L50.1041 35.6393ZM50.2297 37.1658C50.2149 36.6326 50.1769 36.1111 50.1041 35.6393L43.1858 36.7052C43.2002 36.7983 43.2227 37.0113 43.2325 37.362L50.2297 37.1658ZM50.0855 40.6373C50.1998 39.4578 50.2597 38.2336 50.2297 37.1658L43.2325 37.362C43.2521 38.0593 43.2133 38.9805 43.1182 39.963L50.0855 40.6373ZM49.5908 43.9764C49.7987 42.9968 49.9714 41.818 50.0855 40.6373L43.1182 39.963C43.0234 40.9416 42.8853 41.8535 42.7432 42.5238L49.5908 43.9764ZM49.445 44.607C49.4952 44.4082 49.5439 44.1975 49.5908 43.9764L42.7432 42.5238C42.7126 42.6681 42.6839 42.7912 42.6582 42.8928L49.445 44.607ZM43.75 47.25H46.0516V40.25H43.75V47.25ZM45.3152 46.2826C45.0187 46.8755 44.4129 47.25 43.75 47.25V40.25C41.7615 40.25 39.9436 41.3735 39.0542 43.152L45.3152 46.2826ZM43.5652 49.7826L45.3152 46.2826L39.0542 43.152L37.3042 46.652L43.5652 49.7826ZM43.75 49C43.75 49.2716 43.6868 49.5395 43.5652 49.7826L37.3042 46.652C36.9397 47.3811 36.75 48.1848 36.75 49H43.75ZM43.75 52.5V49H36.75V52.5H43.75ZM42 50.75C42.9665 50.75 43.75 51.5335 43.75 52.5H36.75C36.75 55.3994 39.1004 57.75 42 57.75V50.75ZM45.5 50.75H42V57.75H45.5V50.75ZM42 50.75V54.25H49V50.75H42ZM43.75 54.25H45.5V47.25H43.75V54.25ZM40.25 49.413V50.75H47.25V49.413H40.25ZM41.7011 45.6846L40.6194 47.8478L46.8806 50.9784L47.9621 48.8152L41.7011 45.6846ZM49.6685 43.75H44.8315V50.75H49.6685V43.75ZM53.8806 47.8478L52.7989 45.6846L46.5379 48.8152L47.6194 50.9784L53.8806 47.8478ZM54.25 50.75V49.413H47.25V50.75H54.25ZM49 54.25H50.75V47.25H49V54.25ZM52.5 54.25V50.75H45.5V54.25H52.5ZM52.5 50.75H49V57.75H52.5V50.75ZM50.75 52.5C50.75 51.5335 51.5335 50.75 52.5 50.75V57.75C55.3996 57.75 57.75 55.3994 57.75 52.5H50.75ZM50.75 49V52.5H57.75V49H50.75ZM50.9348 49.7826C50.8132 49.5395 50.75 49.2716 50.75 49H57.75C57.75 48.1848 57.5603 47.3811 57.1958 46.652L50.9348 49.7826ZM49.1848 46.2826L50.9348 49.7826L57.1958 46.652L55.4458 43.152L49.1848 46.2826ZM50.75 47.25C50.0871 47.25 49.4812 46.8755 49.1848 46.2826L55.4458 43.152C54.5564 41.3735 52.7385 40.25 50.75 40.25V47.25ZM49.6375 47.25H50.75V40.25H49.6375V47.25ZM46.602 40.3C46.5056 41.2954 46.3656 42.2655 46.206 43.0615L53.0691 44.4383C53.2835 43.3701 53.4544 42.1613 53.5693 40.9743L46.602 40.3ZM46.7311 37.2638C46.756 38.1465 46.7064 39.2192 46.602 40.3L53.5693 40.9743C53.693 39.6965 53.7635 38.3206 53.7283 37.0676L46.7311 37.2638ZM46.7299 37.2204L46.7313 37.2685L53.7283 37.0631L53.7269 37.0149L46.7299 37.2204ZM66.5 49.9973C66.5 46.0988 64.3032 42.7618 61.6483 40.2262C58.9426 37.6425 55.3567 35.4847 51.5905 33.8936L48.8661 40.3417C52.0783 41.6988 54.8781 43.4401 56.8138 45.2886C58.8 47.1854 59.5 48.814 59.5 49.9973H66.5ZM66.5 59.5V49.9973H59.5V59.5H66.5ZM0 63H63V56H0V63ZM-3.5 49.9973V59.5H3.5V49.9973H-3.5ZM12.4253 33.4798C8.4427 35.043 4.61613 37.2332 1.71983 39.8823C-1.11241 42.4728 -3.5 45.9301 -3.5 49.9973H3.5C3.5 48.758 4.2711 47.0353 6.44427 45.0474C8.5533 43.1184 11.5791 41.3318 14.9832 39.9957L12.4253 33.4798ZM10.205 36.8014C10.2275 38.0462 10.3437 39.4058 10.5028 40.6812L17.4491 39.8144C17.3108 38.7077 17.2207 37.6047 17.2037 36.6739L10.205 36.8014ZM10.5028 40.6812C10.6748 42.059 10.912 43.4586 11.1842 44.6483L18.0077 43.0859C17.798 42.1699 17.598 41.0081 17.4491 39.8144L10.5028 40.6812ZM11.1842 44.6483C11.2434 44.9059 11.3062 45.1636 11.3731 45.4167L18.1409 43.6287C18.0966 43.4609 18.0521 43.2794 18.0077 43.0859L11.1842 44.6483ZM15.75 49C15.75 48.0573 16.5238 47.2757 17.5 47.2757V54.2757C20.3605 54.2757 22.75 51.9524 22.75 49H15.75ZM17.5 50.7243C16.5238 50.7243 15.75 49.9425 15.75 49H22.75C22.75 46.0474 20.3605 43.7243 17.5 43.7243V50.7243ZM19.25 49C19.25 49.9425 18.4762 50.7243 17.5 50.7243V43.7243C14.6395 43.7243 12.25 46.0474 12.25 49H19.25ZM17.5 47.2757C18.4762 47.2757 19.25 48.0573 19.25 49H12.25C12.25 51.9524 14.6395 54.2757 17.5 54.2757V47.2757Z" fill="#EE65C7"/>
</g>
</svg>
