<svg width="91" height="63" viewBox="0 0 91 63" fill="none" xmlns="http://www.w3.org/2000/svg">
<path d="M29.25 31.5C37.9519 31.5 45 24.4519 45 15.75C45 7.04812 37.9519 0 29.25 0C20.5481 0 13.5 7.04812 13.5 15.75C13.5 24.4519 20.5481 31.5 29.25 31.5Z" fill="#EE65C7"/>
<path d="M78.75 23.625C78.75 30.4621 73.2121 36 66.375 36C59.5379 36 54 30.4621 54 23.625C54 16.7877 59.5379 11.25 66.375 11.25C73.2121 11.25 78.75 16.7877 78.75 23.625Z" fill="#EE65C7"/>
<path d="M29.25 36C35.4006 36 45.4118 37.915 51.9775 41.7267C54.6593 44.4566 56.25 47.4332 56.25 50.4V63H0V50.4C0 40.824 19.4877 36 29.25 36Z" fill="#EE65C7"/>
<path d="M90.0015 63H60.7515V50.4C60.7515 47.2133 59.6009 44.2802 57.7734 41.6623C61.2405 40.8881 64.6537 40.5 67.2601 40.5C75.649 40.5 90.0015 44.5201 90.0015 52.4999V63Z" fill="#EE65C7"/>
</svg>
