<svg width="75" height="79" viewBox="0 0 75 79" fill="none" xmlns="http://www.w3.org/2000/svg">
<path d="M15.625 10.4688H59.375C61.0326 10.4688 62.6223 11.1554 63.7944 12.3777C64.9665 13.5999 65.625 15.2576 65.625 16.9862V62.608C65.625 66.2252 62.8438 69.1254 59.375 69.1254H15.625C13.9674 69.1254 12.3777 68.4388 11.2056 67.2165C10.0335 65.9943 9.375 64.3365 9.375 62.608V16.9862C9.375 13.4016 12.1875 10.4688 15.625 10.4688ZM25 56.0906H50V49.5732H25V56.0906ZM50 33.2797H42.1875V23.5036H32.8125V33.2797H25L37.5 46.3145L50 33.2797Z" fill="#F185AD"/>
</svg>
