<svg width="65" height="59" viewBox="0 0 65 59" fill="none" xmlns="http://www.w3.org/2000/svg">
<path fill-rule="evenodd" clip-rule="evenodd" d="M35.4884 43.554H41.1343C52.2706 43.554 61.2982 34.5264 61.2982 23.3901C61.2982 12.2538 52.2706 3.22622 41.1343 3.22622H23.3901C12.2538 3.22622 3.22622 12.2538 3.22622 23.3901C3.22622 36.1571 11.6413 43.9632 20.8477 48.7582C25.4202 51.1396 30.0258 52.6787 33.5088 53.6221C34.222 53.8151 34.8851 53.9826 35.4884 54.1266V43.554ZM38.7146 58.072C38.7146 58.072 37.495 57.8941 35.4884 57.4392C26.1908 55.3308 0 47.2722 0 23.3901C0 10.4722 10.4722 0 23.3901 0H41.1343C54.0523 0 64.5244 10.4722 64.5244 23.3901C64.5244 36.3081 54.0523 46.7802 41.1343 46.7802H38.7146V58.072Z" fill="#EE65C7"/>
<path fill-rule="evenodd" clip-rule="evenodd" d="M32.2632 25.8098C33.1541 25.8098 33.8763 25.0876 33.8763 24.1967C33.8763 23.3058 33.1541 22.5836 32.2632 22.5836C31.3722 22.5836 30.65 23.3058 30.65 24.1967C30.65 25.0876 31.3722 25.8098 32.2632 25.8098ZM32.2632 29.036C34.9359 29.036 37.1025 26.8695 37.1025 24.1967C37.1025 21.5239 34.9359 19.3574 32.2632 19.3574C29.5904 19.3574 27.4238 21.5239 27.4238 24.1967C27.4238 26.8695 29.5904 29.036 32.2632 29.036Z" fill="#EE65C7"/>
<path fill-rule="evenodd" clip-rule="evenodd" d="M45.1675 25.8098C46.0584 25.8098 46.7806 25.0876 46.7806 24.1967C46.7806 23.3058 46.0584 22.5836 45.1675 22.5836C44.2765 22.5836 43.5543 23.3058 43.5543 24.1967C43.5543 25.0876 44.2765 25.8098 45.1675 25.8098ZM45.1675 29.036C47.8402 29.036 50.0068 26.8695 50.0068 24.1967C50.0068 21.5239 47.8402 19.3574 45.1675 19.3574C42.4947 19.3574 40.3281 21.5239 40.3281 24.1967C40.3281 26.8695 42.4947 29.036 45.1675 29.036Z" fill="#EE65C7"/>
<path fill-rule="evenodd" clip-rule="evenodd" d="M19.3569 25.8098C20.2478 25.8098 20.97 25.0876 20.97 24.1967C20.97 23.3058 20.2478 22.5836 19.3569 22.5836C18.466 22.5836 17.7438 23.3058 17.7438 24.1967C17.7438 25.0876 18.466 25.8098 19.3569 25.8098ZM19.3569 29.036C22.0297 29.036 24.1962 26.8695 24.1962 24.1967C24.1962 21.5239 22.0297 19.3574 19.3569 19.3574C16.6841 19.3574 14.5176 21.5239 14.5176 24.1967C14.5176 26.8695 16.6841 29.036 19.3569 29.036Z" fill="#EE65C7"/>
</svg>
