<svg width="79" height="84" viewBox="0 0 79 84" fill="none" xmlns="http://www.w3.org/2000/svg">
<path d="M14.4688 2.67859C14.4688 1.5389 15.3926 0.61499 16.5323 0.61499C17.6721 0.61499 18.5959 1.5389 18.5959 2.67859V15.0602C18.5959 16.1999 17.6721 17.1238 16.5323 17.1238C15.3926 17.1238 14.4688 16.1999 14.4688 15.0602V2.67859Z" fill="#EE65C7"/>
<path d="M47.4863 2.67859C47.4863 1.5389 48.4102 0.61499 49.5499 0.61499C50.6897 0.61499 51.6135 1.5389 51.6135 2.67859V15.0602C51.6135 16.1999 50.6897 17.1238 49.5499 17.1238C48.4102 17.1238 47.4863 16.1999 47.4863 15.0602V2.67859Z" fill="#EE65C7"/>
<path fill-rule="evenodd" clip-rule="evenodd" d="M18.5962 39.8233H14.469V43.9505H18.5962V39.8233ZM14.469 35.6961C12.1895 35.6961 10.3418 37.5439 10.3418 39.8233V43.9505C10.3418 46.23 12.1895 48.0777 14.469 48.0777H18.5962C20.8756 48.0777 22.7234 46.23 22.7234 43.9505V39.8233C22.7234 37.5439 20.8756 35.6961 18.5962 35.6961H14.469Z" fill="#EE65C7"/>
<path fill-rule="evenodd" clip-rule="evenodd" d="M35.104 39.8233H30.9768V43.9505H35.104V39.8233ZM30.9768 35.6961C28.6974 35.6961 26.8496 37.5439 26.8496 39.8233V43.9505C26.8496 46.23 28.6974 48.0777 30.9768 48.0777H35.104C37.3835 48.0777 39.2312 46.23 39.2312 43.9505V39.8233C39.2312 37.5439 37.3835 35.6961 35.104 35.6961H30.9768Z" fill="#EE65C7"/>
<path fill-rule="evenodd" clip-rule="evenodd" d="M51.6138 39.8233H47.4866V43.9505H51.6138V39.8233ZM47.4866 35.6961C45.2071 35.6961 43.3594 37.5439 43.3594 39.8233V43.9505C43.3594 46.23 45.2071 48.0777 47.4866 48.0777H51.6138C53.8932 48.0777 55.741 46.23 55.741 43.9505V39.8233C55.741 37.5439 53.8932 35.6961 51.6138 35.6961H47.4866Z" fill="#EE65C7"/>
<path fill-rule="evenodd" clip-rule="evenodd" d="M18.5962 56.3321H14.469V60.4593H18.5962V56.3321ZM14.469 52.2049C12.1895 52.2049 10.3418 54.0527 10.3418 56.3321V60.4593C10.3418 62.7388 12.1895 64.5865 14.469 64.5865H18.5962C20.8756 64.5865 22.7234 62.7388 22.7234 60.4593V56.3321C22.7234 54.0527 20.8756 52.2049 18.5962 52.2049H14.469Z" fill="#EE65C7"/>
<path fill-rule="evenodd" clip-rule="evenodd" d="M35.104 56.3321H30.9768V60.4593H35.104V56.3321ZM30.9768 52.2049C28.6974 52.2049 26.8496 54.0527 26.8496 56.3321V60.4593C26.8496 62.7388 28.6974 64.5865 30.9768 64.5865H35.104C37.3835 64.5865 39.2312 62.7388 39.2312 60.4593V56.3321C39.2312 54.0527 37.3835 52.2049 35.104 52.2049H30.9768Z" fill="#EE65C7"/>
<path fill-rule="evenodd" clip-rule="evenodd" d="M8.27783 12.9966H57.8042C60.0836 12.9966 61.9314 14.8443 61.9314 17.1238V50.1414C63.3565 50.1414 64.7395 50.3219 66.0586 50.6614V17.1238C66.0586 12.565 62.3629 8.86938 57.8042 8.86938H8.27783C3.71905 8.86938 0.0234375 12.565 0.0234375 17.1238V66.6501C0.0234375 71.2088 3.71905 74.9045 8.27783 74.9045H47.6313C46.8923 73.6272 46.3196 72.2415 45.9426 70.7773H8.27783C5.99844 70.7773 4.15063 68.9296 4.15063 66.6501V17.1238C4.15063 14.8443 5.99844 12.9966 8.27783 12.9966Z" fill="#EE65C7"/>
<path fill-rule="evenodd" clip-rule="evenodd" d="M63.9958 31.569H2.08789V27.4418H63.9958V31.569Z" fill="#EE65C7"/>
<path fill-rule="evenodd" clip-rule="evenodd" d="M61.9326 79.0317C68.7708 79.0317 74.3142 73.4883 74.3142 66.6501C74.3142 59.812 68.7708 54.2685 61.9326 54.2685C55.0945 54.2685 49.551 59.812 49.551 66.6501C49.551 73.4883 55.0945 79.0317 61.9326 79.0317ZM61.9326 83.1589C71.0502 83.1589 78.4414 75.7677 78.4414 66.6501C78.4414 57.5325 71.0502 50.1413 61.9326 50.1413C52.815 50.1413 45.4238 57.5325 45.4238 66.6501C45.4238 75.7677 52.815 83.1589 61.9326 83.1589Z" fill="#EE65C7"/>
<path fill-rule="evenodd" clip-rule="evenodd" d="M61.9308 56.7009C63.0705 56.7009 63.9944 57.6248 63.9944 58.7645V67.6341L69.0533 71.1457C69.9896 71.7955 70.2217 73.0814 69.5717 74.0176C68.9218 74.9539 67.636 75.186 66.6998 74.5362L59.8672 69.7934V58.7645C59.8672 57.6248 60.7911 56.7009 61.9308 56.7009Z" fill="#EE65C7"/>
</svg>
