<svg width="128" height="20" viewBox="0 0 128 20" fill="none" xmlns="http://www.w3.org/2000/svg">
<path d="M5.088 11.992L5.328 17.8L7.656 18.28L7.536 19.24L4.128 19L0.84 19.24L0.888 18.28L2.88 17.8L3.048 11.656L2.928 3.4L0.96 2.92L1.08 1.96L4.008 2.2L7.224 1.936L9.192 2.08L11.136 2.704L13.032 4.144L13.632 6.616L13.2 9.28L11.736 10.96L7.512 12.28L5.088 11.992ZM5.256 3.28L5.112 10.936L7.224 11.2L10.464 9.832L11.16 7.12L10.656 4.912L8.76 3.064L5.256 3.28ZM19.0043 8.968H19.1003L20.5883 7.264L22.2203 6.544L24.0203 7L23.6123 10.576L22.7723 10.408L22.1723 7.936L20.6123 8.44L18.9083 10.432L18.7883 12.688L18.8603 15.016L18.9563 17.8L21.3563 18.28L21.2363 19.12L17.7563 19L14.8283 19.12L14.8763 18.28L16.4603 17.8L16.5803 15.28L16.5323 10.672L16.4123 8.176L14.7083 8.248L14.5883 7.408L17.9003 6.76L19.1003 7.024L19.0043 8.968ZM25.311 14.44V11.296L26.727 8.44L29.439 6.64L32.727 6.52L35.727 8.32L37.287 11.2L36.999 15.592L35.223 18.424L31.503 19.48L28.383 18.88L26.103 16.816L25.311 14.44ZM27.951 10.48L27.831 13.168L28.119 15.952L29.151 17.752L31.695 18.376L34.047 17.344L34.743 13.6L34.503 10.48L33.615 8.488L31.863 7.6L29.463 7.864L27.951 10.48ZM47.3951 1.648L46.8911 4.216L46.0991 4.336L45.7871 2.224L45.5951 1.936L44.6831 1.816L43.1951 2.8L42.8831 5.08V7.72L46.3151 7.6L46.0751 8.8L42.8831 8.68L42.9071 14.968L43.0271 17.8L45.5231 18.28L45.4031 19.12L41.7551 19L38.8271 19.12L38.8751 18.28L40.4831 17.8L40.7231 15.352L40.6271 8.68L39.0671 8.8V7.6L40.6511 7.696L40.7951 4.12L42.0191 1.84L44.1791 0.879999L46.6511 1.168L47.3951 1.648ZM48.7046 2.008L49.8086 1.48L50.9606 1.864L51.4886 3.16L50.8166 4.216L49.6886 4.672L48.6326 4.024L48.1286 2.944L48.7046 2.008ZM51.4166 10.288L51.2726 12.688L51.3446 15.016L51.4406 17.8L53.1926 18.28L53.0726 19.12L50.2406 19L47.3126 19.12L47.3606 18.28L48.9446 17.8L49.0646 15.28L49.0166 10.672L48.8966 8.176L47.1926 8.248L47.0726 7.408L50.3846 6.76L51.5846 7.024L51.4166 10.288ZM56.1696 18.064L58.1616 18.376L60.3936 18.064L60.9216 16.432L60.2736 15.184L55.8096 12.472L54.8496 10.96L54.8016 8.416L56.5056 6.976L59.0256 6.52L62.5536 7.24L62.0496 10.768L61.0416 10.432L60.5856 7.936L58.9296 7.624L57.1296 8.032L56.6736 9.352L57.2496 10.768L61.8576 13.408L62.9856 14.824L63.0816 17.08L61.4496 19L58.5696 19.48L56.5776 19.384L54.3456 18.52L54.9456 15.064L55.9776 15.4L56.1696 18.064ZM66.5289 18.064L68.5209 18.376L70.7529 18.064L71.2809 16.432L70.6329 15.184L66.1689 12.472L65.2089 10.96L65.1609 8.416L66.8649 6.976L69.3849 6.52L72.9129 7.24L72.4089 10.768L71.4009 10.432L70.9449 7.936L69.2889 7.624L67.4889 8.032L67.0329 9.352L67.6089 10.768L72.2169 13.408L73.3449 14.824L73.4409 17.08L71.8089 19L68.9289 19.48L66.9369 19.384L64.7049 18.52L65.3049 15.064L66.3369 15.4L66.5289 18.064ZM76.3843 2.008L77.4883 1.48L78.6403 1.864L79.1683 3.16L78.4963 4.216L77.3683 4.672L76.3123 4.024L75.8083 2.944L76.3843 2.008ZM79.0963 10.288L78.9523 12.688L79.0243 15.016L79.1203 17.8L80.8723 18.28L80.7523 19.12L77.9203 19L74.9923 19.12L75.0403 18.28L76.6243 17.8L76.7443 15.28L76.6963 10.672L76.5763 8.176L74.8723 8.248L74.7523 7.408L78.0643 6.76L79.2643 7.024L79.0963 10.288ZM82.2173 14.44V11.296L83.6333 8.44L86.3453 6.64L89.6333 6.52L92.6333 8.32L94.1933 11.2L93.9053 15.592L92.1293 18.424L88.4093 19.48L85.2893 18.88L83.0093 16.816L82.2173 14.44ZM84.8573 10.48L84.7373 13.168L85.0253 15.952L86.0573 17.752L88.6013 18.376L90.9533 17.344L91.6493 13.6L91.4093 10.48L90.5213 8.488L88.7693 7.6L86.3693 7.864L84.8573 10.48ZM107.709 17.824L109.413 18.28L109.293 19.12L106.461 19L103.533 19.12L103.581 18.28L105.165 17.8L105.333 15.28L105.237 10.048L104.589 8.464L102.549 8.104L99.9334 9.448L99.8854 10.288L99.7414 12.688L99.7894 15.016L99.9094 17.8L101.661 18.28L101.541 19.12L98.7094 19L95.7814 19.12L95.8294 18.28L97.4134 17.8L97.5814 15.28L97.3654 8.176L95.6614 8.248L95.5414 7.408L98.8534 6.76L100.053 7.024L99.9814 8.248L102.549 6.688L104.997 6.52L107.205 8.032L107.565 9.952L107.517 15.016L107.709 17.824ZM113.194 17.656L114.994 18.112L117.418 16.72L117.322 13.48H115.234L113.386 14.224L112.546 15.712L113.194 17.656ZM119.386 14.632L119.554 18.016L121.21 18.256L121.042 19.048L117.706 19.336L117.394 17.92H117.274L114.898 19.336H112.402L110.722 18.112L110.218 15.76L111.274 13.888L114.154 12.64L117.322 12.52L117.226 9.52L116.77 8.032L114.826 7.48L112.498 8.032L112.426 10.576L111.49 10.768L110.866 7.48L113.626 6.664L116.722 6.52L118.594 7.432L119.362 9.496L119.386 14.632ZM126.013 4.288L125.869 12.688L125.941 15.016L126.133 17.8L127.885 18.28L127.765 19.12L124.837 19L121.909 19.12L121.957 18.28L123.541 17.8L123.661 15.28L123.757 10.024L123.613 4.672L123.493 2.272L121.789 2.344L121.669 1.504L124.981 0.855999L126.181 1.12L126.013 4.288Z" fill="#F2C9E4" fill-opacity="0.58"/>
<path d="M5.088 11.992L5.12339 11.6941L4.77372 11.6525L4.78826 12.0044L5.088 11.992ZM5.328 17.8L5.02826 17.8124L5.03793 18.0465L5.26742 18.0938L5.328 17.8ZM7.656 18.28L7.95368 18.3172L7.98807 18.0422L7.71658 17.9862L7.656 18.28ZM7.536 19.24L7.51493 19.5393L7.79843 19.5592L7.83368 19.2772L7.536 19.24ZM4.128 19L4.14907 18.7007L4.12762 18.6992L4.10616 18.7008L4.128 19ZM0.84 19.24L0.540374 19.225L0.52343 19.5639L0.86184 19.5392L0.84 19.24ZM0.888 18.28L0.817722 17.9883L0.59958 18.0409L0.588374 18.265L0.888 18.28ZM2.88 17.8L2.95028 18.0917L3.17361 18.0378L3.17989 17.8082L2.88 17.8ZM3.048 11.656L3.34815 11.6642L3.34797 11.6516L3.048 11.656ZM2.928 3.4L3.22797 3.39564L3.2246 3.16354L2.99909 3.10854L2.928 3.4ZM0.96 2.92L0.662317 2.88279L0.629153 3.1481L0.888913 3.21146L0.96 2.92ZM1.08 1.96L1.10451 1.661L0.817976 1.63752L0.782317 1.92279L1.08 1.96ZM4.008 2.2L3.98349 2.499L4.00802 2.50101L4.03254 2.49899L4.008 2.2ZM7.224 1.936L7.24589 1.6368L7.22267 1.6351L7.19946 1.63701L7.224 1.936ZM9.192 2.08L9.28369 1.79435L9.2496 1.78341L9.21389 1.7808L9.192 2.08ZM11.136 2.704L11.3174 2.46509L11.2766 2.43404L11.2277 2.41835L11.136 2.704ZM13.032 4.144L13.3235 4.07324L13.2984 3.9696L13.2134 3.90509L13.032 4.144ZM13.632 6.616L13.9281 6.66402L13.9378 6.60417L13.9235 6.54524L13.632 6.616ZM13.2 9.28L13.4262 9.47709L13.4824 9.41254L13.4961 9.32802L13.2 9.28ZM11.736 10.96L11.8255 11.2463L11.9064 11.221L11.9622 11.1571L11.736 10.96ZM7.512 12.28L7.47661 12.5779L7.54028 12.5855L7.60148 12.5663L7.512 12.28ZM5.256 3.28L5.23754 2.98057L4.96126 2.9976L4.95605 3.27436L5.256 3.28ZM5.112 10.936L4.81205 10.9304L4.80698 11.2002L5.07479 11.2337L5.112 10.936ZM7.224 11.2L7.18679 11.4977L7.2666 11.5077L7.34069 11.4764L7.224 11.2ZM10.464 9.832L10.5807 10.1084L10.7176 10.0506L10.7546 9.90657L10.464 9.832ZM11.16 7.12L11.4506 7.19457L11.4687 7.12414L11.4525 7.05324L11.16 7.12ZM10.656 4.912L10.9485 4.84524L10.9288 4.75895L10.8654 4.69717L10.656 4.912ZM8.76 3.064L8.9694 2.84916L8.87421 2.75639L8.74154 2.76457L8.76 3.064ZM4.78826 12.0044L5.02826 17.8124L5.62774 17.7876L5.38774 11.9796L4.78826 12.0044ZM5.26742 18.0938L7.59542 18.5738L7.71658 17.9862L5.38858 17.5062L5.26742 18.0938ZM7.35832 18.2428L7.23832 19.2028L7.83368 19.2772L7.95368 18.3172L7.35832 18.2428ZM7.55708 18.9407L4.14907 18.7007L4.10693 19.2993L7.51493 19.5393L7.55708 18.9407ZM4.10616 18.7008L0.81816 18.9408L0.86184 19.5392L4.14984 19.2992L4.10616 18.7008ZM1.13963 19.255L1.18763 18.295L0.588374 18.265L0.540374 19.225L1.13963 19.255ZM0.958278 18.5717L2.95028 18.0917L2.80972 17.5083L0.817722 17.9883L0.958278 18.5717ZM3.17989 17.8082L3.34789 11.6642L2.74811 11.6478L2.58011 17.7918L3.17989 17.8082ZM3.34797 11.6516L3.22797 3.39564L2.62803 3.40436L2.74803 11.6604L3.34797 11.6516ZM2.99909 3.10854L1.03109 2.62854L0.888913 3.21146L2.85691 3.69145L2.99909 3.10854ZM1.25768 2.95721L1.37768 1.99721L0.782317 1.92279L0.662317 2.88279L1.25768 2.95721ZM1.05549 2.259L3.98349 2.499L4.03251 1.901L1.10451 1.661L1.05549 2.259ZM4.03254 2.49899L7.24855 2.23499L7.19946 1.63701L3.98346 1.901L4.03254 2.49899ZM7.20211 2.2352L9.17011 2.3792L9.21389 1.7808L7.24589 1.6368L7.20211 2.2352ZM9.10031 2.36564L11.0443 2.98964L11.2277 2.41835L9.28369 1.79435L9.10031 2.36564ZM10.9546 2.94291L12.8506 4.38291L13.2134 3.90509L11.3174 2.46509L10.9546 2.94291ZM12.7405 4.21476L13.3405 6.68676L13.9235 6.54524L13.3235 4.07324L12.7405 4.21476ZM13.3359 6.56798L12.9039 9.23198L13.4961 9.32802L13.9281 6.66402L13.3359 6.56798ZM12.9738 9.08291L11.5098 10.7629L11.9622 11.1571L13.4262 9.47709L12.9738 9.08291ZM11.6465 10.6737L7.42252 11.9937L7.60148 12.5663L11.8255 11.2463L11.6465 10.6737ZM7.5474 11.9821L5.12339 11.6941L5.05261 12.2899L7.47661 12.5779L7.5474 11.9821ZM4.95605 3.27436L4.81205 10.9304L5.41195 10.9416L5.55595 3.28564L4.95605 3.27436ZM5.07479 11.2337L7.18679 11.4977L7.26121 10.9023L5.14921 10.6383L5.07479 11.2337ZM7.34069 11.4764L10.5807 10.1084L10.3473 9.55562L7.10731 10.9236L7.34069 11.4764ZM10.7546 9.90657L11.4506 7.19457L10.8694 7.04542L10.1734 9.75742L10.7546 9.90657ZM11.4525 7.05324L10.9485 4.84524L10.3635 4.97876L10.8675 7.18676L11.4525 7.05324ZM10.8654 4.69717L8.9694 2.84916L8.5506 3.27883L10.4466 5.12683L10.8654 4.69717ZM8.74154 2.76457L5.23754 2.98057L5.27446 3.57943L8.77846 3.36343L8.74154 2.76457ZM19.0042 8.968L18.7046 8.9532L18.6891 9.268H19.0042V8.968ZM19.1003 8.968V9.268H19.2366L19.3262 9.16533L19.1003 8.968ZM20.5882 7.264L20.4672 6.98952L20.4061 7.01644L20.3623 7.06667L20.5882 7.264ZM22.2203 6.544L22.2939 6.25319L22.1937 6.2278L22.0992 6.26952L22.2203 6.544ZM24.0203 7L24.3183 7.03401L24.348 6.77356L24.0939 6.70919L24.0203 7ZM23.6123 10.576L23.5534 10.8702L23.8733 10.9342L23.9103 10.61L23.6123 10.576ZM22.7723 10.408L22.4807 10.4788L22.5258 10.6647L22.7134 10.7022L22.7723 10.408ZM22.1723 7.936L22.4638 7.86524L22.3876 7.55117L22.08 7.65053L22.1723 7.936ZM20.6123 8.44L20.52 8.15453L20.4394 8.18058L20.3843 8.24499L20.6123 8.44ZM18.9083 10.432L18.6803 10.237L18.6141 10.3144L18.6087 10.4161L18.9083 10.432ZM18.7882 12.688L18.4887 12.6721L18.488 12.6847L18.4884 12.6973L18.7882 12.688ZM18.8603 15.016L18.5604 15.0253L18.5604 15.0263L18.8603 15.016ZM18.9562 17.8L18.6564 17.8103L18.6646 18.0476L18.8974 18.0942L18.9562 17.8ZM21.3563 18.28L21.6532 18.3224L21.6934 18.0415L21.4151 17.9858L21.3563 18.28ZM21.2362 19.12L21.2259 19.4198L21.4951 19.4291L21.5332 19.1624L21.2362 19.12ZM17.7563 19L17.7666 18.7002L17.7553 18.6998L17.744 18.7003L17.7563 19ZM14.8282 19.12L14.5287 19.1029L14.5099 19.4333L14.8405 19.4197L14.8282 19.12ZM14.8763 18.28L14.7892 17.9929L14.5887 18.0537L14.5767 18.2629L14.8763 18.28ZM16.4603 17.8L16.5473 18.0871L16.7498 18.0257L16.7599 17.8143L16.4603 17.8ZM16.5802 15.28L16.8799 15.2943L16.8803 15.2856L16.8802 15.2769L16.5802 15.28ZM16.5322 10.672L16.8324 10.6689L16.8319 10.6576L16.5322 10.672ZM16.4123 8.176L16.7119 8.16159L16.6976 7.86368L16.3996 7.87627L16.4123 8.176ZM14.7083 8.248L14.4113 8.29043L14.4497 8.55919L14.7209 8.54773L14.7083 8.248ZM14.5883 7.408L14.5306 7.11358L14.251 7.1683L14.2913 7.45043L14.5883 7.408ZM17.9002 6.76L17.9647 6.46701L17.9038 6.45361L17.8426 6.46558L17.9002 6.76ZM19.1003 7.024L19.3999 7.0388L19.4124 6.7855L19.1647 6.73101L19.1003 7.024ZM19.0042 9.268H19.1003V8.668H19.0042V9.268ZM19.3262 9.16533L20.8142 7.46133L20.3623 7.06667L18.8743 8.77067L19.3262 9.16533ZM20.7093 7.53848L22.3413 6.81847L22.0992 6.26952L20.4672 6.98952L20.7093 7.53848ZM22.1466 6.83481L23.9466 7.29081L24.0939 6.70919L22.2939 6.25319L22.1466 6.83481ZM23.7222 6.96599L23.3142 10.542L23.9103 10.61L24.3183 7.03401L23.7222 6.96599ZM23.6711 10.2818L22.8311 10.1138L22.7134 10.7022L23.5534 10.8702L23.6711 10.2818ZM23.0638 10.3372L22.4638 7.86524L21.8807 8.00676L22.4807 10.4788L23.0638 10.3372ZM22.08 7.65053L20.52 8.15453L20.7045 8.72547L22.2645 8.22147L22.08 7.65053ZM20.3843 8.24499L18.6803 10.237L19.1362 10.627L20.8402 8.63501L20.3843 8.24499ZM18.6087 10.4161L18.4887 12.6721L19.0878 12.7039L19.2078 10.4479L18.6087 10.4161ZM18.4884 12.6973L18.5604 15.0253L19.1601 15.0067L19.0881 12.6787L18.4884 12.6973ZM18.5604 15.0263L18.6564 17.8103L19.2561 17.7897L19.1601 15.0057L18.5604 15.0263ZM18.8974 18.0942L21.2974 18.5742L21.4151 17.9858L19.0151 17.5058L18.8974 18.0942ZM21.0593 18.2376L20.9393 19.0776L21.5332 19.1624L21.6532 18.3224L21.0593 18.2376ZM21.2466 18.8202L17.7666 18.7002L17.7459 19.2998L21.2259 19.4198L21.2466 18.8202ZM17.744 18.7003L14.816 18.8203L14.8405 19.4197L17.7685 19.2997L17.744 18.7003ZM15.1278 19.1371L15.1758 18.2971L14.5767 18.2629L14.5287 19.1029L15.1278 19.1371ZM14.9633 18.5671L16.5473 18.0871L16.3732 17.5129L14.7892 17.9929L14.9633 18.5671ZM16.7599 17.8143L16.8799 15.2943L16.2806 15.2657L16.1606 17.7857L16.7599 17.8143ZM16.8802 15.2769L16.8322 10.6689L16.2323 10.6751L16.2803 15.2831L16.8802 15.2769ZM16.8319 10.6576L16.7119 8.16159L16.1126 8.19041L16.2326 10.6864L16.8319 10.6576ZM16.3996 7.87627L14.6956 7.94827L14.7209 8.54773L16.4249 8.47573L16.3996 7.87627ZM15.0052 8.20557L14.8852 7.36557L14.2913 7.45043L14.4113 8.29043L15.0052 8.20557ZM14.6459 7.70242L17.9579 7.05442L17.8426 6.46558L14.5306 7.11358L14.6459 7.70242ZM17.8358 7.05299L19.0358 7.31699L19.1647 6.73101L17.9647 6.46701L17.8358 7.05299ZM18.8006 7.0092L18.7046 8.9532L19.3039 8.9828L19.3999 7.0388L18.8006 7.0092ZM25.311 14.44H25.011V14.4887L25.0264 14.5349L25.311 14.44ZM25.311 11.296L25.0422 11.1627L25.011 11.2257V11.296H25.311ZM26.727 8.44L26.5611 8.19004L26.494 8.23458L26.4582 8.30674L26.727 8.44ZM29.439 6.64L29.4281 6.3402L29.3436 6.34328L29.2731 6.39004L29.439 6.64ZM32.727 6.52L32.8813 6.26275L32.805 6.21695L32.7161 6.2202L32.727 6.52ZM35.727 8.32L35.9908 8.17711L35.9517 8.10497L35.8813 8.06275L35.727 8.32ZM37.287 11.2L37.5864 11.2196L37.592 11.1332L37.5508 11.0571L37.287 11.2ZM36.999 15.592L37.2532 15.7514L37.2934 15.6872L37.2984 15.6116L36.999 15.592ZM35.223 18.424L35.3049 18.7126L35.4159 18.6811L35.4772 18.5834L35.223 18.424ZM31.503 19.48L31.4463 19.7746L31.5163 19.7881L31.5849 19.7686L31.503 19.48ZM28.383 18.88L28.1817 19.1024L28.2439 19.1587L28.3263 19.1746L28.383 18.88ZM26.103 16.816L25.8184 16.9109L25.8433 16.9856L25.9017 17.0384L26.103 16.816ZM27.951 10.48L27.6913 10.3299L27.6546 10.3934L27.6513 10.4666L27.951 10.48ZM27.831 13.168L27.5313 13.1546L27.5303 13.1768L27.5326 13.1989L27.831 13.168ZM28.119 15.952L27.8206 15.9829L27.8271 16.0461L27.8587 16.1012L28.119 15.952ZM29.151 17.752L28.8907 17.9012L28.9547 18.0127L29.0795 18.0434L29.151 17.752ZM31.695 18.376L31.6235 18.6674L31.7224 18.6916L31.8155 18.6507L31.695 18.376ZM34.047 17.344L34.1675 17.6187L34.3129 17.5549L34.3419 17.3988L34.047 17.344ZM34.743 13.6L35.0379 13.6548L35.0451 13.6162L35.0421 13.577L34.743 13.6ZM34.503 10.48L34.8021 10.457L34.7981 10.4052L34.777 10.3579L34.503 10.48ZM33.615 8.488L33.889 8.36585L33.8456 8.26856L33.7506 8.22041L33.615 8.488ZM31.863 7.6L31.9986 7.33241L31.919 7.29203L31.8302 7.3018L31.863 7.6ZM29.463 7.864L29.4302 7.5658L29.2793 7.5824L29.2033 7.71388L29.463 7.864ZM25.611 14.44V11.296H25.011V14.44H25.611ZM25.5798 11.4293L26.9958 8.57326L26.4582 8.30674L25.0422 11.1627L25.5798 11.4293ZM26.8929 8.68995L29.6049 6.88995L29.2731 6.39004L26.5611 8.19004L26.8929 8.68995ZM29.4499 6.9398L32.7379 6.8198L32.7161 6.2202L29.4281 6.3402L29.4499 6.9398ZM32.5727 6.77725L35.5727 8.57725L35.8813 8.06275L32.8813 6.26275L32.5727 6.77725ZM35.4632 8.46288L37.0232 11.3429L37.5508 11.0571L35.9908 8.17711L35.4632 8.46288ZM36.9876 11.1804L36.6996 15.5724L37.2984 15.6116L37.5864 11.2196L36.9876 11.1804ZM36.7448 15.4326L34.9688 18.2646L35.4772 18.5834L37.2532 15.7514L36.7448 15.4326ZM35.1411 18.1354L31.4211 19.1914L31.5849 19.7686L35.3049 18.7126L35.1411 18.1354ZM31.5597 19.1854L28.4397 18.5854L28.3263 19.1746L31.4463 19.7746L31.5597 19.1854ZM28.5843 18.6576L26.3043 16.5936L25.9017 17.0384L28.1817 19.1024L28.5843 18.6576ZM26.3876 16.7211L25.5956 14.3451L25.0264 14.5349L25.8184 16.9109L26.3876 16.7211ZM27.6513 10.4666L27.5313 13.1546L28.1307 13.1814L28.2507 10.4934L27.6513 10.4666ZM27.5326 13.1989L27.8206 15.9829L28.4174 15.9211L28.1294 13.1371L27.5326 13.1989ZM27.8587 16.1012L28.8907 17.9012L29.4113 17.6028L28.3793 15.8028L27.8587 16.1012ZM29.0795 18.0434L31.6235 18.6674L31.7665 18.0846L29.2225 17.4606L29.0795 18.0434ZM31.8155 18.6507L34.1675 17.6187L33.9265 17.0693L31.5745 18.1013L31.8155 18.6507ZM34.3419 17.3988L35.0379 13.6548L34.4481 13.5452L33.7521 17.2892L34.3419 17.3988ZM35.0421 13.577L34.8021 10.457L34.2039 10.503L34.4439 13.623L35.0421 13.577ZM34.777 10.3579L33.889 8.36585L33.341 8.61015L34.229 10.6021L34.777 10.3579ZM33.7506 8.22041L31.9986 7.33241L31.7274 7.86759L33.4794 8.75559L33.7506 8.22041ZM31.8302 7.3018L29.4302 7.5658L29.4958 8.1622L31.8958 7.8982L31.8302 7.3018ZM29.2033 7.71388L27.6913 10.3299L28.2107 10.6301L29.7227 8.01412L29.2033 7.71388ZM47.3951 1.648L47.6895 1.70578L47.7287 1.50618L47.5578 1.39591L47.3951 1.648ZM46.8911 4.216L46.9361 4.51261L47.1448 4.48098L47.1855 4.27378L46.8911 4.216ZM46.0991 4.336L45.8023 4.37984L45.8464 4.67772L46.1441 4.63261L46.0991 4.336ZM45.7871 2.224L46.0839 2.18016L46.0741 2.11358L46.0367 2.05759L45.7871 2.224ZM45.5951 1.936L45.8447 1.76959L45.7692 1.65632L45.6343 1.63856L45.5951 1.936ZM44.6831 1.816L44.7223 1.51856L44.6111 1.50394L44.5176 1.56577L44.6831 1.816ZM43.1951 2.8L43.0296 2.54977L42.9163 2.62471L42.8979 2.75933L43.1951 2.8ZM42.8831 5.08L42.5859 5.03933L42.5831 5.05957V5.08H42.8831ZM42.8831 7.72H42.5831V8.03067L42.8936 8.01982L42.8831 7.72ZM46.3151 7.6L46.6093 7.65883L46.6837 7.28693L46.3046 7.30018L46.3151 7.6ZM46.0751 8.8L46.0639 9.09979L46.3192 9.10939L46.3693 8.85883L46.0751 8.8ZM42.8831 8.68L42.8944 8.38021L42.5819 8.36846L42.5831 8.68114L42.8831 8.68ZM42.9071 14.968L42.6069 14.9691L42.6074 14.9807L42.9071 14.968ZM43.0271 17.8L42.7274 17.8127L42.7374 18.0498L42.9705 18.0946L43.0271 17.8ZM45.5231 18.28L45.8201 18.3224L45.8605 18.0394L45.5798 17.9854L45.5231 18.28ZM45.4031 19.12L45.3933 19.4198L45.6621 19.4287L45.7001 19.1624L45.4031 19.12ZM41.7551 19L41.765 18.7002L41.7539 18.6998L41.7428 18.7003L41.7551 19ZM38.8271 19.12L38.5276 19.1029L38.5087 19.4333L38.8394 19.4197L38.8271 19.12ZM38.8751 18.28L38.7893 17.9925L38.5876 18.0527L38.5756 18.2629L38.8751 18.28ZM40.4831 17.8L40.5689 18.0875L40.762 18.0298L40.7817 17.8293L40.4831 17.8ZM40.7231 15.352L41.0217 15.3813L41.0233 15.3645L41.0231 15.3477L40.7231 15.352ZM40.6271 8.68L40.9271 8.67568L40.9225 8.35639L40.6041 8.38088L40.6271 8.68ZM39.0671 8.8H38.7671V9.12396L39.0901 9.09912L39.0671 8.8ZM39.0671 7.6L39.0853 7.30055L38.7671 7.28127V7.6H39.0671ZM40.6511 7.696L40.633 7.99545L40.9386 8.01397L40.9509 7.70807L40.6511 7.696ZM40.7951 4.12L40.5308 3.9781L40.4981 4.03894L40.4954 4.10793L40.7951 4.12ZM42.0191 1.84L41.8973 1.56586L41.8034 1.60758L41.7548 1.6981L42.0191 1.84ZM44.1791 0.879999L44.2138 0.582014L44.1323 0.572514L44.0573 0.605855L44.1791 0.879999ZM46.6511 1.168L46.8138 0.91591L46.7551 0.878088L46.6858 0.870015L46.6511 1.168ZM47.1007 1.59022L46.5967 4.15822L47.1855 4.27378L47.6895 1.70578L47.1007 1.59022ZM46.8462 3.91938L46.0542 4.03939L46.1441 4.63261L46.9361 4.51261L46.8462 3.91938ZM46.3959 4.29216L46.0839 2.18016L45.4903 2.26784L45.8023 4.37984L46.3959 4.29216ZM46.0367 2.05759L45.8447 1.76959L45.3455 2.10241L45.5375 2.39041L46.0367 2.05759ZM45.6343 1.63856L44.7223 1.51856L44.644 2.11344L45.556 2.23344L45.6343 1.63856ZM44.5176 1.56577L43.0296 2.54977L43.3606 3.05023L44.8486 2.06623L44.5176 1.56577ZM42.8979 2.75933L42.5859 5.03933L43.1804 5.12067L43.4924 2.84067L42.8979 2.75933ZM42.5831 5.08V7.72H43.1831V5.08H42.5831ZM42.8936 8.01982L46.3256 7.89982L46.3046 7.30018L42.8726 7.42018L42.8936 8.01982ZM46.021 7.54116L45.781 8.74117L46.3693 8.85883L46.6093 7.65883L46.021 7.54116ZM46.0864 8.50021L42.8944 8.38021L42.8719 8.97979L46.0639 9.09979L46.0864 8.50021ZM42.5831 8.68114L42.6071 14.9691L43.2071 14.9669L43.1831 8.67885L42.5831 8.68114ZM42.6074 14.9807L42.7274 17.8127L43.3269 17.7873L43.2069 14.9553L42.6074 14.9807ZM42.9705 18.0946L45.4665 18.5746L45.5798 17.9854L43.0838 17.5054L42.9705 18.0946ZM45.2261 18.2376L45.1061 19.0776L45.7001 19.1624L45.8201 18.3224L45.2261 18.2376ZM45.413 18.8202L41.765 18.7002L41.7453 19.2998L45.3933 19.4198L45.413 18.8202ZM41.7428 18.7003L38.8148 18.8203L38.8394 19.4197L41.7674 19.2997L41.7428 18.7003ZM39.1266 19.1371L39.1746 18.2971L38.5756 18.2629L38.5276 19.1029L39.1266 19.1371ZM38.9609 18.5675L40.5689 18.0875L40.3973 17.5125L38.7893 17.9925L38.9609 18.5675ZM40.7817 17.8293L41.0217 15.3813L40.4246 15.3227L40.1846 17.7707L40.7817 17.8293ZM41.0231 15.3477L40.9271 8.67568L40.3272 8.68432L40.4232 15.3563L41.0231 15.3477ZM40.6041 8.38088L39.0441 8.50088L39.0901 9.09912L40.6501 8.97912L40.6041 8.38088ZM39.3671 8.8V7.6H38.7671V8.8H39.3671ZM39.049 7.89945L40.633 7.99545L40.6693 7.39655L39.0853 7.30055L39.049 7.89945ZM40.9509 7.70807L41.0949 4.13207L40.4954 4.10793L40.3514 7.68393L40.9509 7.70807ZM41.0594 4.2619L42.2834 1.9819L41.7548 1.6981L40.5308 3.9781L41.0594 4.2619ZM42.141 2.11414L44.301 1.15414L44.0573 0.605855L41.8973 1.56586L42.141 2.11414ZM44.1444 1.17798L46.6164 1.46598L46.6858 0.870015L44.2138 0.582014L44.1444 1.17798ZM46.4885 1.42009L47.2325 1.90009L47.5578 1.39591L46.8138 0.91591L46.4885 1.42009ZM48.7046 2.008L48.5752 1.73736L48.4955 1.7755L48.4491 1.85077L48.7046 2.008ZM49.8086 1.48L49.9035 1.19539L49.7885 1.15707L49.6792 1.20936L49.8086 1.48ZM50.9606 1.864L51.2385 1.75081L51.1864 1.62303L51.0555 1.57939L50.9606 1.864ZM51.4886 3.16L51.7417 3.32106L51.8249 3.19032L51.7665 3.04681L51.4886 3.16ZM50.8166 4.216L50.9291 4.49413L51.0181 4.45812L51.0697 4.37706L50.8166 4.216ZM49.6886 4.672L49.5317 4.9277L49.6607 5.00686L49.8011 4.95013L49.6886 4.672ZM48.6326 4.024L48.3608 4.15087L48.3989 4.23255L48.4757 4.2797L48.6326 4.024ZM48.1286 2.944L47.8731 2.78677L47.7884 2.92441L47.8568 3.07086L48.1286 2.944ZM51.4166 10.288L51.7161 10.306L51.7162 10.3034L51.4166 10.288ZM51.2726 12.688L50.9732 12.67L50.9723 12.6836L50.9728 12.6973L51.2726 12.688ZM51.3446 15.016L51.0448 15.0253L51.0448 15.0263L51.3446 15.016ZM51.4406 17.8L51.1408 17.8103L51.1484 18.031L51.3614 18.0893L51.4406 17.8ZM53.1926 18.28L53.4896 18.3224L53.527 18.0606L53.2719 17.9907L53.1926 18.28ZM53.0726 19.12L53.0599 19.4197L53.3312 19.4312L53.3696 19.1624L53.0726 19.12ZM50.2406 19L50.2533 18.7003L50.2408 18.6997L50.2283 18.7003L50.2406 19ZM47.3126 19.12L47.0131 19.1029L46.9942 19.4333L47.3249 19.4197L47.3126 19.12ZM47.3606 18.28L47.2736 17.9929L47.0731 18.0537L47.0611 18.2629L47.3606 18.28ZM48.9446 17.8L49.0316 18.0871L49.2342 18.0257L49.2443 17.8143L48.9446 17.8ZM49.0646 15.28L49.3643 15.2943L49.3647 15.2856L49.3646 15.2769L49.0646 15.28ZM49.0166 10.672L49.3168 10.6689L49.3163 10.6576L49.0166 10.672ZM48.8966 8.176L49.1963 8.16159L49.182 7.86368L48.884 7.87627L48.8966 8.176ZM47.1926 8.248L46.8956 8.29043L46.934 8.55919L47.2053 8.54773L47.1926 8.248ZM47.0726 7.408L47.015 7.11358L46.7353 7.1683L46.7756 7.45043L47.0726 7.408ZM50.3846 6.76L50.4491 6.46701L50.3882 6.45361L50.327 6.46558L50.3846 6.76ZM51.5846 7.024L51.8842 7.03942L51.8973 6.78561L51.6491 6.73101L51.5846 7.024ZM48.8341 2.27864L49.9381 1.75064L49.6792 1.20936L48.5752 1.73736L48.8341 2.27864ZM49.7138 1.7646L50.8658 2.1486L51.0555 1.57939L49.9035 1.19539L49.7138 1.7646ZM50.6828 1.97719L51.2108 3.27319L51.7665 3.04681L51.2385 1.75081L50.6828 1.97719ZM51.2355 2.99894L50.5635 4.05494L51.0697 4.37706L51.7417 3.32106L51.2355 2.99894ZM50.7042 3.93787L49.5762 4.39387L49.8011 4.95013L50.9291 4.49413L50.7042 3.93787ZM49.8455 4.4163L48.7895 3.7683L48.4757 4.2797L49.5317 4.9277L49.8455 4.4163ZM48.9045 3.89713L48.4005 2.81713L47.8568 3.07086L48.3608 4.15087L48.9045 3.89713ZM48.3841 3.10123L48.9601 2.16523L48.4491 1.85077L47.8731 2.78677L48.3841 3.10123ZM51.1172 10.27L50.9732 12.67L51.5721 12.706L51.7161 10.306L51.1172 10.27ZM50.9728 12.6973L51.0448 15.0253L51.6445 15.0067L51.5725 12.6787L50.9728 12.6973ZM51.0448 15.0263L51.1408 17.8103L51.7404 17.7897L51.6444 15.0057L51.0448 15.0263ZM51.3614 18.0893L53.1134 18.5693L53.2719 17.9907L51.5199 17.5107L51.3614 18.0893ZM52.8956 18.2376L52.7756 19.0776L53.3696 19.1624L53.4896 18.3224L52.8956 18.2376ZM53.0853 18.8203L50.2533 18.7003L50.2279 19.2997L53.0599 19.4197L53.0853 18.8203ZM50.2283 18.7003L47.3003 18.8203L47.3249 19.4197L50.2529 19.2997L50.2283 18.7003ZM47.6121 19.1371L47.6601 18.2971L47.0611 18.2629L47.0131 19.1029L47.6121 19.1371ZM47.4476 18.5671L49.0316 18.0871L48.8576 17.5129L47.2736 17.9929L47.4476 18.5671ZM49.2443 17.8143L49.3643 15.2943L48.765 15.2657L48.645 17.7857L49.2443 17.8143ZM49.3646 15.2769L49.3166 10.6689L48.7166 10.6751L48.7646 15.2831L49.3646 15.2769ZM49.3163 10.6576L49.1963 8.16159L48.597 8.19041L48.717 10.6864L49.3163 10.6576ZM48.884 7.87627L47.18 7.94827L47.2053 8.54773L48.9093 8.47573L48.884 7.87627ZM47.4896 8.20557L47.3696 7.36557L46.7756 7.45043L46.8956 8.29043L47.4896 8.20557ZM47.1302 7.70242L50.4422 7.05442L50.327 6.46558L47.015 7.11358L47.1302 7.70242ZM50.3202 7.05299L51.5202 7.31699L51.6491 6.73101L50.4491 6.46701L50.3202 7.05299ZM51.285 7.00858L51.117 10.2726L51.7162 10.3034L51.8842 7.03942L51.285 7.00858ZM56.1696 18.064L55.8703 18.0856L55.8875 18.3235L56.1231 18.3604L56.1696 18.064ZM58.1616 18.376L58.1151 18.6724L58.1591 18.6793L58.2031 18.6731L58.1616 18.376ZM60.3936 18.064L60.4351 18.3611L60.6212 18.3351L60.679 18.1563L60.3936 18.064ZM60.9216 16.432L61.207 16.5243L61.2456 16.405L61.1878 16.2938L60.9216 16.432ZM60.2736 15.184L60.5398 15.0458L60.5011 14.9712L60.4293 14.9276L60.2736 15.184ZM55.8096 12.472L55.5563 12.6328L55.5939 12.692L55.6538 12.7284L55.8096 12.472ZM54.8496 10.96L54.5496 10.9657L54.5512 11.0498L54.5963 11.1208L54.8496 10.96ZM54.8016 8.416L54.6079 8.18686L54.4989 8.27897L54.5016 8.42166L54.8016 8.416ZM56.5056 6.976L56.4521 6.68079L56.3732 6.69508L56.3119 6.74686L56.5056 6.976ZM59.0256 6.52L59.0856 6.22606L59.029 6.21451L58.9721 6.22479L59.0256 6.52ZM62.5536 7.24L62.8505 7.28243L62.8905 7.00258L62.6136 6.94606L62.5536 7.24ZM62.0496 10.768L61.9547 11.0526L62.2957 11.1663L62.3465 10.8104L62.0496 10.768ZM61.0416 10.432L60.7464 10.4859L60.7783 10.6605L60.9467 10.7166L61.0416 10.432ZM60.5856 7.936L60.8807 7.88208L60.8436 7.67934L60.6411 7.64119L60.5856 7.936ZM58.9296 7.624L58.9851 7.32919L58.9239 7.31766L58.8632 7.33142L58.9296 7.624ZM57.1296 8.032L57.0632 7.73942L56.9005 7.77631L56.846 7.93404L57.1296 8.032ZM56.6736 9.352L56.39 9.25404L56.3532 9.36061L56.3957 9.46504L56.6736 9.352ZM57.2496 10.768L56.9717 10.881L57.0107 10.9769L57.1004 11.0283L57.2496 10.768ZM61.8576 13.408L62.0922 13.2211L62.0565 13.1762L62.0067 13.1477L61.8576 13.408ZM62.9856 14.824L63.2853 14.8112L63.2811 14.7136L63.2202 14.6371L62.9856 14.824ZM63.0816 17.08L63.3101 17.2743L63.3863 17.1847L63.3813 17.0672L63.0816 17.08ZM61.4496 19L61.4989 19.2959L61.6071 19.2779L61.6781 19.1943L61.4496 19ZM58.5696 19.48L58.5551 19.7797L58.5872 19.7812L58.6189 19.7759L58.5696 19.48ZM56.5776 19.384L56.4693 19.6638L56.5146 19.6813L56.5631 19.6837L56.5776 19.384ZM54.3456 18.52L54.05 18.4687L54.0079 18.711L54.2373 18.7998L54.3456 18.52ZM54.9456 15.064L55.0384 14.7787L54.7092 14.6715L54.65 15.0127L54.9456 15.064ZM55.9776 15.4L56.2768 15.3784L56.2623 15.1772L56.0704 15.1147L55.9776 15.4ZM56.1231 18.3604L58.1151 18.6724L58.208 18.0796L56.216 17.7676L56.1231 18.3604ZM58.2031 18.6731L60.4351 18.3611L60.352 17.7669L58.12 18.0789L58.2031 18.6731ZM60.679 18.1563L61.207 16.5243L60.6361 16.3397L60.1081 17.9717L60.679 18.1563ZM61.1878 16.2938L60.5398 15.0458L60.0073 15.3222L60.6553 16.5702L61.1878 16.2938ZM60.4293 14.9276L55.9653 12.2156L55.6538 12.7284L60.1178 15.4404L60.4293 14.9276ZM56.0628 12.3112L55.1028 10.7992L54.5963 11.1208L55.5563 12.6328L56.0628 12.3112ZM55.1495 10.9543L55.1015 8.41034L54.5016 8.42166L54.5496 10.9657L55.1495 10.9543ZM54.9952 8.64514L56.6992 7.20514L56.3119 6.74686L54.6079 8.18686L54.9952 8.64514ZM56.559 7.2712L59.079 6.8152L58.9721 6.22479L56.4521 6.68079L56.559 7.2712ZM58.9656 6.81394L62.4936 7.53394L62.6136 6.94606L59.0856 6.22606L58.9656 6.81394ZM62.2566 7.19757L61.7526 10.7256L62.3465 10.8104L62.8505 7.28243L62.2566 7.19757ZM62.1444 10.4834L61.1364 10.1474L60.9467 10.7166L61.9547 11.0526L62.1444 10.4834ZM61.3367 10.3781L60.8807 7.88208L60.2904 7.98991L60.7464 10.4859L61.3367 10.3781ZM60.6411 7.64119L58.9851 7.32919L58.874 7.91881L60.53 8.23081L60.6411 7.64119ZM58.8632 7.33142L57.0632 7.73942L57.1959 8.32458L58.9959 7.91658L58.8632 7.33142ZM56.846 7.93404L56.39 9.25404L56.9571 9.44996L57.4131 8.12996L56.846 7.93404ZM56.3957 9.46504L56.9717 10.881L57.5275 10.655L56.9515 9.23896L56.3957 9.46504ZM57.1004 11.0283L61.7084 13.6683L62.0067 13.1477L57.3987 10.5077L57.1004 11.0283ZM61.6229 13.5949L62.7509 15.0109L63.2202 14.6371L62.0922 13.2211L61.6229 13.5949ZM62.6858 14.8368L62.7818 17.0928L63.3813 17.0672L63.2853 14.8112L62.6858 14.8368ZM62.853 16.8857L61.221 18.8057L61.6781 19.1943L63.3101 17.2743L62.853 16.8857ZM61.4002 18.7041L58.5202 19.1841L58.6189 19.7759L61.4989 19.2959L61.4002 18.7041ZM58.584 19.1803L56.592 19.0843L56.5631 19.6837L58.5551 19.7797L58.584 19.1803ZM56.6859 19.1042L54.4539 18.2402L54.2373 18.7998L56.4693 19.6638L56.6859 19.1042ZM54.6411 18.5713L55.2411 15.1153L54.65 15.0127L54.05 18.4687L54.6411 18.5713ZM54.8527 15.3493L55.8847 15.6853L56.0704 15.1147L55.0384 14.7787L54.8527 15.3493ZM55.6783 15.4216L55.8703 18.0856L56.4688 18.0424L56.2768 15.3784L55.6783 15.4216ZM66.5289 18.064L66.2297 18.0856L66.2469 18.3235L66.4825 18.3604L66.5289 18.064ZM68.5209 18.376L68.4745 18.6724L68.5184 18.6793L68.5625 18.6731L68.5209 18.376ZM70.7529 18.064L70.7945 18.3611L70.9805 18.3351L71.0384 18.1563L70.7529 18.064ZM71.2809 16.432L71.5664 16.5243L71.605 16.405L71.5472 16.2938L71.2809 16.432ZM70.6329 15.184L70.8992 15.0458L70.8605 14.9712L70.7887 14.9276L70.6329 15.184ZM66.1689 12.472L65.9157 12.6328L65.9533 12.692L66.0132 12.7284L66.1689 12.472ZM65.2089 10.96L64.909 10.9657L64.9106 11.0498L64.9557 11.1208L65.2089 10.96ZM65.1609 8.416L64.9673 8.18686L64.8583 8.27897L64.861 8.42166L65.1609 8.416ZM66.8649 6.976L66.8115 6.68079L66.7326 6.69508L66.6713 6.74686L66.8649 6.976ZM69.3849 6.52L69.4449 6.22606L69.3883 6.21451L69.3315 6.22479L69.3849 6.52ZM72.9129 7.24L73.2099 7.28243L73.2499 7.00258L72.9729 6.94606L72.9129 7.24ZM72.4089 10.768L72.3141 11.0526L72.6551 11.1663L72.7059 10.8104L72.4089 10.768ZM71.4009 10.432L71.1058 10.4859L71.1377 10.6605L71.3061 10.7166L71.4009 10.432ZM70.9449 7.936L71.2401 7.88208L71.203 7.67934L71.0005 7.64119L70.9449 7.936ZM69.2889 7.624L69.3445 7.32919L69.2833 7.31766L69.2226 7.33142L69.2889 7.624ZM67.4889 8.032L67.4226 7.73942L67.2599 7.77631L67.2054 7.93404L67.4889 8.032ZM67.0329 9.352L66.7494 9.25404L66.7126 9.36061L66.7551 9.46504L67.0329 9.352ZM67.6089 10.768L67.331 10.881L67.37 10.9769L67.4598 11.0283L67.6089 10.768ZM72.2169 13.408L72.4516 13.2211L72.4158 13.1762L72.3661 13.1477L72.2169 13.408ZM73.3449 14.824L73.6447 14.8112L73.6405 14.7136L73.5796 14.6371L73.3449 14.824ZM73.4409 17.08L73.6695 17.2743L73.7457 17.1847L73.7407 17.0672L73.4409 17.08ZM71.8089 19L71.8583 19.2959L71.9665 19.2779L72.0375 19.1943L71.8089 19ZM68.9289 19.48L68.9145 19.7797L68.9466 19.7812L68.9783 19.7759L68.9289 19.48ZM66.9369 19.384L66.8286 19.6638L66.874 19.6813L66.9225 19.6837L66.9369 19.384ZM64.7049 18.52L64.4094 18.4687L64.3673 18.711L64.5966 18.7998L64.7049 18.52ZM65.3049 15.064L65.3978 14.7787L65.0686 14.6715L65.0094 15.0127L65.3049 15.064ZM66.3369 15.4L66.6362 15.3784L66.6217 15.1772L66.4298 15.1147L66.3369 15.4ZM66.4825 18.3604L68.4745 18.6724L68.5674 18.0796L66.5754 17.7676L66.4825 18.3604ZM68.5625 18.6731L70.7945 18.3611L70.7114 17.7669L68.4794 18.0789L68.5625 18.6731ZM71.0384 18.1563L71.5664 16.5243L70.9955 16.3397L70.4675 17.9717L71.0384 18.1563ZM71.5472 16.2938L70.8992 15.0458L70.3667 15.3222L71.0147 16.5702L71.5472 16.2938ZM70.7887 14.9276L66.3247 12.2156L66.0132 12.7284L70.4772 15.4404L70.7887 14.9276ZM66.4222 12.3112L65.4622 10.7992L64.9557 11.1208L65.9157 12.6328L66.4222 12.3112ZM65.5089 10.9543L65.4609 8.41034L64.861 8.42166L64.909 10.9657L65.5089 10.9543ZM65.3546 8.64514L67.0586 7.20514L66.6713 6.74686L64.9673 8.18686L65.3546 8.64514ZM66.9184 7.2712L69.4384 6.8152L69.3315 6.22479L66.8115 6.68079L66.9184 7.2712ZM69.325 6.81394L72.853 7.53394L72.9729 6.94606L69.4449 6.22606L69.325 6.81394ZM72.616 7.19757L72.112 10.7256L72.7059 10.8104L73.2099 7.28243L72.616 7.19757ZM72.5038 10.4834L71.4958 10.1474L71.3061 10.7166L72.3141 11.0526L72.5038 10.4834ZM71.6961 10.3781L71.2401 7.88208L70.6498 7.98991L71.1058 10.4859L71.6961 10.3781ZM71.0005 7.64119L69.3445 7.32919L69.2334 7.91881L70.8894 8.23081L71.0005 7.64119ZM69.2226 7.33142L67.4226 7.73942L67.5553 8.32458L69.3553 7.91658L69.2226 7.33142ZM67.2054 7.93404L66.7494 9.25404L67.3165 9.44996L67.7725 8.12996L67.2054 7.93404ZM66.7551 9.46504L67.331 10.881L67.8868 10.655L67.3108 9.23896L66.7551 9.46504ZM67.4598 11.0283L72.0678 13.6683L72.3661 13.1477L67.7581 10.5077L67.4598 11.0283ZM71.9823 13.5949L73.1103 15.0109L73.5796 14.6371L72.4516 13.2211L71.9823 13.5949ZM73.0452 14.8368L73.1412 17.0928L73.7407 17.0672L73.6447 14.8112L73.0452 14.8368ZM73.2124 16.8857L71.5804 18.8057L72.0375 19.1943L73.6695 17.2743L73.2124 16.8857ZM71.7596 18.7041L68.8796 19.1841L68.9783 19.7759L71.8583 19.2959L71.7596 18.7041ZM68.9434 19.1803L66.9514 19.0843L66.9225 19.6837L68.9145 19.7797L68.9434 19.1803ZM67.0452 19.1042L64.8132 18.2402L64.5966 18.7998L66.8286 19.6638L67.0452 19.1042ZM65.0005 18.5713L65.6005 15.1153L65.0094 15.0127L64.4094 18.4687L65.0005 18.5713ZM65.2121 15.3493L66.2441 15.6853L66.4298 15.1147L65.3978 14.7787L65.2121 15.3493ZM66.0377 15.4216L66.2297 18.0856L66.8282 18.0424L66.6362 15.3784L66.0377 15.4216ZM76.3843 2.008L76.2549 1.73736L76.1751 1.7755L76.1288 1.85077L76.3843 2.008ZM77.4883 1.48L77.5832 1.19539L77.4682 1.15707L77.3589 1.20936L77.4883 1.48ZM78.6403 1.864L78.9181 1.75081L78.8661 1.62303L78.7352 1.57939L78.6403 1.864ZM79.1683 3.16L79.4214 3.32106L79.5046 3.19032L79.4461 3.04681L79.1683 3.16ZM78.4963 4.216L78.6087 4.49413L78.6978 4.45812L78.7494 4.37706L78.4963 4.216ZM77.3683 4.672L77.2114 4.9277L77.3404 5.00686L77.4808 4.95013L77.3683 4.672ZM76.3123 4.024L76.0405 4.15087L76.0786 4.23255L76.1554 4.2797L76.3123 4.024ZM75.8083 2.944L75.5528 2.78677L75.4681 2.92441L75.5365 3.07086L75.8083 2.944ZM79.0963 10.288L79.3958 10.306L79.3959 10.3034L79.0963 10.288ZM78.9523 12.688L78.6529 12.67L78.652 12.6836L78.6525 12.6973L78.9523 12.688ZM79.0243 15.016L78.7245 15.0253L78.7245 15.0263L79.0243 15.016ZM79.1203 17.8L78.8205 17.8103L78.8281 18.031L79.041 18.0893L79.1203 17.8ZM80.8723 18.28L81.1693 18.3224L81.2067 18.0606L80.9516 17.9907L80.8723 18.28ZM80.7523 19.12L80.7396 19.4197L81.0109 19.4312L81.0493 19.1624L80.7523 19.12ZM77.9203 19L77.933 18.7003L77.9205 18.6997L77.908 18.7003L77.9203 19ZM74.9923 19.12L74.6928 19.1029L74.6739 19.4333L75.0046 19.4197L74.9923 19.12ZM75.0403 18.28L74.9533 17.9929L74.7528 18.0537L74.7408 18.2629L75.0403 18.28ZM76.6243 17.8L76.7113 18.0871L76.9139 18.0257L76.924 17.8143L76.6243 17.8ZM76.7443 15.28L77.044 15.2943L77.0444 15.2856L77.0443 15.2769L76.7443 15.28ZM76.6963 10.672L76.9965 10.6689L76.996 10.6576L76.6963 10.672ZM76.5763 8.176L76.876 8.16159L76.8616 7.86368L76.5636 7.87627L76.5763 8.176ZM74.8723 8.248L74.5753 8.29043L74.6137 8.55919L74.885 8.54773L74.8723 8.248ZM74.7523 7.408L74.6947 7.11358L74.415 7.1683L74.4553 7.45043L74.7523 7.408ZM78.0643 6.76L78.1288 6.46701L78.0679 6.45361L78.0067 6.46558L78.0643 6.76ZM79.2643 7.024L79.5639 7.03942L79.577 6.78561L79.3288 6.73101L79.2643 7.024ZM76.5137 2.27864L77.6178 1.75064L77.3589 1.20936L76.2549 1.73736L76.5137 2.27864ZM77.3934 1.7646L78.5454 2.1486L78.7352 1.57939L77.5832 1.19539L77.3934 1.7646ZM78.3625 1.97719L78.8905 3.27319L79.4461 3.04681L78.9181 1.75081L78.3625 1.97719ZM78.9152 2.99894L78.2432 4.05494L78.7494 4.37706L79.4214 3.32106L78.9152 2.99894ZM78.3839 3.93787L77.2559 4.39387L77.4808 4.95013L78.6087 4.49413L78.3839 3.93787ZM77.5252 4.4163L76.4692 3.7683L76.1554 4.2797L77.2114 4.9277L77.5252 4.4163ZM76.5842 3.89713L76.0802 2.81713L75.5365 3.07086L76.0405 4.15087L76.5842 3.89713ZM76.0638 3.10123L76.6398 2.16523L76.1288 1.85077L75.5528 2.78677L76.0638 3.10123ZM78.7969 10.27L78.6529 12.67L79.2518 12.706L79.3958 10.306L78.7969 10.27ZM78.6525 12.6973L78.7245 15.0253L79.3242 15.0067L79.2522 12.6787L78.6525 12.6973ZM78.7245 15.0263L78.8205 17.8103L79.4201 17.7897L79.3241 15.0057L78.7245 15.0263ZM79.041 18.0893L80.793 18.5693L80.9516 17.9907L79.1996 17.5107L79.041 18.0893ZM80.5753 18.2376L80.4553 19.0776L81.0493 19.1624L81.1693 18.3224L80.5753 18.2376ZM80.765 18.8203L77.933 18.7003L77.9076 19.2997L80.7396 19.4197L80.765 18.8203ZM77.908 18.7003L74.98 18.8203L75.0046 19.4197L77.9326 19.2997L77.908 18.7003ZM75.2918 19.1371L75.3398 18.2971L74.7408 18.2629L74.6928 19.1029L75.2918 19.1371ZM75.1273 18.5671L76.7113 18.0871L76.5373 17.5129L74.9533 17.9929L75.1273 18.5671ZM76.924 17.8143L77.044 15.2943L76.4446 15.2657L76.3247 17.7857L76.924 17.8143ZM77.0443 15.2769L76.9963 10.6689L76.3963 10.6751L76.4443 15.2831L77.0443 15.2769ZM76.996 10.6576L76.876 8.16159L76.2767 8.19041L76.3967 10.6864L76.996 10.6576ZM76.5636 7.87627L74.8596 7.94827L74.885 8.54773L76.589 8.47573L76.5636 7.87627ZM75.1693 8.20557L75.0493 7.36557L74.4553 7.45043L74.5753 8.29043L75.1693 8.20557ZM74.8099 7.70242L78.1219 7.05442L78.0067 6.46558L74.6947 7.11358L74.8099 7.70242ZM77.9999 7.05299L79.1999 7.31699L79.3288 6.73101L78.1288 6.46701L77.9999 7.05299ZM78.9647 7.00858L78.7967 10.2726L79.3959 10.3034L79.5639 7.03942L78.9647 7.00858ZM82.2172 14.44H81.9173V14.4887L81.9326 14.5349L82.2172 14.44ZM82.2172 11.296L81.9485 11.1627L81.9173 11.2257V11.296H82.2172ZM83.6332 8.44L83.4674 8.19004L83.4002 8.23458L83.3645 8.30674L83.6332 8.44ZM86.3453 6.64L86.3343 6.3402L86.2498 6.34328L86.1794 6.39004L86.3453 6.64ZM89.6332 6.52L89.7876 6.26275L89.7113 6.21695L89.6223 6.2202L89.6332 6.52ZM92.6332 8.32L92.897 8.17711L92.858 8.10497L92.7876 8.06275L92.6332 8.32ZM94.1933 11.2L94.4926 11.2196L94.4983 11.1332L94.457 11.0571L94.1933 11.2ZM93.9053 15.592L94.1594 15.7514L94.1997 15.6872L94.2046 15.6116L93.9053 15.592ZM92.1292 18.424L92.2112 18.7126L92.3221 18.6811L92.3834 18.5834L92.1292 18.424ZM88.4092 19.48L88.3526 19.7746L88.4226 19.7881L88.4912 19.7686L88.4092 19.48ZM85.2893 18.88L85.0879 19.1024L85.1502 19.1587L85.2326 19.1746L85.2893 18.88ZM83.0092 16.816L82.7246 16.9109L82.7495 16.9856L82.8079 17.0384L83.0092 16.816ZM84.8572 10.48L84.5975 10.3299L84.5608 10.3934L84.5575 10.4666L84.8572 10.48ZM84.7373 13.168L84.4375 13.1546L84.4366 13.1768L84.4388 13.1989L84.7373 13.168ZM85.0253 15.952L84.7268 15.9829L84.7334 16.0461L84.765 16.1012L85.0253 15.952ZM86.0573 17.752L85.797 17.9012L85.8609 18.0127L85.9858 18.0434L86.0573 17.752ZM88.6012 18.376L88.5298 18.6674L88.6286 18.6916L88.7218 18.6507L88.6012 18.376ZM90.9532 17.344L91.0738 17.6187L91.2192 17.5549L91.2482 17.3988L90.9532 17.344ZM91.6493 13.6L91.9442 13.6548L91.9514 13.6162L91.9484 13.577L91.6493 13.6ZM91.4092 10.48L91.7084 10.457L91.7044 10.4052L91.6833 10.3579L91.4092 10.48ZM90.5212 8.488L90.7953 8.36585L90.7519 8.26856L90.6569 8.22041L90.5212 8.488ZM88.7692 7.6L88.9049 7.33241L88.8252 7.29203L88.7365 7.3018L88.7692 7.6ZM86.3692 7.864L86.3364 7.5658L86.1855 7.5824L86.1095 7.71388L86.3692 7.864ZM82.5173 14.44V11.296H81.9173V14.44H82.5173ZM82.486 11.4293L83.902 8.57326L83.3645 8.30674L81.9485 11.1627L82.486 11.4293ZM83.7991 8.68995L86.5111 6.88995L86.1794 6.39004L83.4674 8.19004L83.7991 8.68995ZM86.3562 6.9398L89.6442 6.8198L89.6223 6.2202L86.3343 6.3402L86.3562 6.9398ZM89.4789 6.77725L92.4789 8.57725L92.7876 8.06275L89.7876 6.26275L89.4789 6.77725ZM92.3695 8.46288L93.9295 11.3429L94.457 11.0571L92.897 8.17711L92.3695 8.46288ZM93.8939 11.1804L93.6059 15.5724L94.2046 15.6116L94.4926 11.2196L93.8939 11.1804ZM93.6511 15.4326L91.8751 18.2646L92.3834 18.5834L94.1594 15.7514L93.6511 15.4326ZM92.0473 18.1354L88.3273 19.1914L88.4912 19.7686L92.2112 18.7126L92.0473 18.1354ZM88.4659 19.1854L85.3459 18.5854L85.2326 19.1746L88.3526 19.7746L88.4659 19.1854ZM85.4906 18.6576L83.2106 16.5936L82.8079 17.0384L85.0879 19.1024L85.4906 18.6576ZM83.2939 16.7211L82.5019 14.3451L81.9326 14.5349L82.7246 16.9109L83.2939 16.7211ZM84.5575 10.4666L84.4375 13.1546L85.0369 13.1814L85.157 10.4934L84.5575 10.4666ZM84.4388 13.1989L84.7268 15.9829L85.3237 15.9211L85.0357 13.1371L84.4388 13.1989ZM84.765 16.1012L85.797 17.9012L86.3175 17.6028L85.2855 15.8028L84.765 16.1012ZM85.9858 18.0434L88.5298 18.6674L88.6727 18.0846L86.1287 17.4606L85.9858 18.0434ZM88.7218 18.6507L91.0738 17.6187L90.8327 17.0693L88.4807 18.1013L88.7218 18.6507ZM91.2482 17.3988L91.9442 13.6548L91.3543 13.5452L90.6583 17.2892L91.2482 17.3988ZM91.9484 13.577L91.7084 10.457L91.1101 10.503L91.3501 13.623L91.9484 13.577ZM91.6833 10.3579L90.7953 8.36585L90.2472 8.61015L91.1352 10.6021L91.6833 10.3579ZM90.6569 8.22041L88.9049 7.33241L88.6336 7.86759L90.3856 8.75559L90.6569 8.22041ZM88.7365 7.3018L86.3364 7.5658L86.4021 8.1622L88.8021 7.8982L88.7365 7.3018ZM86.1095 7.71388L84.5975 10.3299L85.117 10.6301L86.629 8.01412L86.1095 7.71388ZM107.709 17.824L107.41 17.8445L107.425 18.0584L107.632 18.1138L107.709 17.824ZM109.413 18.28L109.71 18.3224L109.748 18.059L109.491 17.9902L109.413 18.28ZM109.293 19.12L109.281 19.4197L109.552 19.4312L109.59 19.1624L109.293 19.12ZM106.461 19L106.474 18.7003L106.462 18.6997L106.449 18.7003L106.461 19ZM103.533 19.12L103.234 19.1029L103.215 19.4333L103.546 19.4197L103.533 19.12ZM103.581 18.28L103.494 17.9929L103.294 18.0537L103.282 18.2629L103.581 18.28ZM105.165 17.8L105.252 18.0871L105.451 18.0269L105.465 17.82L105.165 17.8ZM105.333 15.28L105.633 15.3L105.634 15.2872L105.633 15.2745L105.333 15.28ZM105.237 10.048L105.537 10.0425L105.536 9.98637L105.515 9.93441L105.237 10.048ZM104.589 8.464L104.867 8.35041L104.804 8.19731L104.642 8.16856L104.589 8.464ZM102.549 8.104L102.602 7.80856L102.502 7.79102L102.412 7.83716L102.549 8.104ZM99.9334 9.448L99.7963 9.18116L99.6437 9.25957L99.6339 9.43088L99.9334 9.448ZM99.8854 10.288L100.185 10.306L100.185 10.3051L99.8854 10.288ZM99.7414 12.688L99.4419 12.67L99.4412 12.6821L99.4414 12.6942L99.7414 12.688ZM99.7894 15.016L99.4894 15.0222L99.4897 15.0289L99.7894 15.016ZM99.9094 17.8L99.6096 17.8129L99.6191 18.0315L99.8301 18.0893L99.9094 17.8ZM101.661 18.28L101.958 18.3224L101.996 18.0606L101.741 17.9907L101.661 18.28ZM101.541 19.12L101.529 19.4197L101.8 19.4312L101.838 19.1624L101.541 19.12ZM98.7094 19L98.7221 18.7003L98.7096 18.6997L98.6971 18.7003L98.7094 19ZM95.7814 19.12L95.4819 19.1029L95.463 19.4333L95.7937 19.4197L95.7814 19.12ZM95.8294 18.28L95.7424 17.9929L95.5418 18.0537L95.5299 18.2629L95.8294 18.28ZM97.4134 17.8L97.5004 18.0871L97.6989 18.0269L97.7127 17.82L97.4134 17.8ZM97.5814 15.28L97.8807 15.3L97.8817 15.2854L97.8812 15.2709L97.5814 15.28ZM97.3654 8.176L97.6652 8.16688L97.656 7.86345L97.3527 7.87627L97.3654 8.176ZM95.6614 8.248L95.3644 8.29043L95.4028 8.55919L95.674 8.54773L95.6614 8.248ZM95.5414 7.408L95.4838 7.11358L95.2041 7.1683L95.2444 7.45043L95.5414 7.408ZM98.8534 6.76L98.9178 6.46701L98.8569 6.45361L98.7958 6.46558L98.8534 6.76ZM100.053 7.024L100.353 7.04162L100.368 6.78602L100.118 6.73101L100.053 7.024ZM99.9814 8.248L99.6819 8.23038L99.6483 8.80135L100.137 8.5044L99.9814 8.248ZM102.549 6.688L102.529 6.3887L102.456 6.3937L102.394 6.4316L102.549 6.688ZM104.997 6.52L105.167 6.27247L105.081 6.21356L104.977 6.2207L104.997 6.52ZM107.205 8.032L107.5 7.97671L107.477 7.85464L107.375 7.78447L107.205 8.032ZM107.565 9.952L107.865 9.95484L107.866 9.92553L107.86 9.89671L107.565 9.952ZM107.517 15.016L107.217 15.0132L107.217 15.0248L107.218 15.0365L107.517 15.016ZM107.632 18.1138L109.336 18.5698L109.491 17.9902L107.787 17.5342L107.632 18.1138ZM109.116 18.2376L108.996 19.0776L109.59 19.1624L109.71 18.3224L109.116 18.2376ZM109.306 18.8203L106.474 18.7003L106.449 19.2997L109.281 19.4197L109.306 18.8203ZM106.449 18.7003L103.521 18.8203L103.546 19.4197L106.474 19.2997L106.449 18.7003ZM103.833 19.1371L103.881 18.2971L103.282 18.2629L103.234 19.1029L103.833 19.1371ZM103.668 18.5671L105.252 18.0871L105.078 17.5129L103.494 17.9929L103.668 18.5671ZM105.465 17.82L105.633 15.3L105.034 15.26L104.866 17.78L105.465 17.82ZM105.633 15.2745L105.537 10.0425L104.937 10.0535L105.033 15.2855L105.633 15.2745ZM105.515 9.93441L104.867 8.35041L104.312 8.57759L104.96 10.1616L105.515 9.93441ZM104.642 8.16856L102.602 7.80856L102.497 8.39943L104.537 8.75943L104.642 8.16856ZM102.412 7.83716L99.7963 9.18116L100.07 9.71484L102.686 8.37084L102.412 7.83716ZM99.6339 9.43088L99.5859 10.2709L100.185 10.3051L100.233 9.46511L99.6339 9.43088ZM99.5859 10.27L99.4419 12.67L100.041 12.706L100.185 10.306L99.5859 10.27ZM99.4414 12.6942L99.4894 15.0222L100.089 15.0098L100.041 12.6818L99.4414 12.6942ZM99.4897 15.0289L99.6096 17.8129L100.209 17.7871L100.089 15.0031L99.4897 15.0289ZM99.8301 18.0893L101.582 18.5693L101.741 17.9907L99.9886 17.5107L99.8301 18.0893ZM101.364 18.2376L101.244 19.0776L101.838 19.1624L101.958 18.3224L101.364 18.2376ZM101.554 18.8203L98.7221 18.7003L98.6967 19.2997L101.529 19.4197L101.554 18.8203ZM98.6971 18.7003L95.7691 18.8203L95.7937 19.4197L98.7217 19.2997L98.6971 18.7003ZM96.0809 19.1371L96.1289 18.2971L95.5299 18.2629L95.4819 19.1029L96.0809 19.1371ZM95.9164 18.5671L97.5004 18.0871L97.3264 17.5129L95.7424 17.9929L95.9164 18.5671ZM97.7127 17.82L97.8807 15.3L97.282 15.26L97.114 17.78L97.7127 17.82ZM97.8812 15.2709L97.6652 8.16688L97.0655 8.18512L97.2815 15.2891L97.8812 15.2709ZM97.3527 7.87627L95.6487 7.94827L95.674 8.54773L97.378 8.47573L97.3527 7.87627ZM95.9584 8.20557L95.8384 7.36557L95.2444 7.45043L95.3644 8.29043L95.9584 8.20557ZM95.599 7.70242L98.911 7.05442L98.7958 6.46558L95.4838 7.11358L95.599 7.70242ZM98.7889 7.05299L99.9889 7.31699L100.118 6.73101L98.9178 6.46701L98.7889 7.05299ZM99.7539 7.00638L99.6819 8.23038L100.281 8.26562L100.353 7.04162L99.7539 7.00638ZM100.137 8.5044L102.705 6.9444L102.394 6.4316L99.8256 7.9916L100.137 8.5044ZM102.57 6.9873L105.018 6.81929L104.977 6.2207L102.529 6.3887L102.57 6.9873ZM104.828 6.76752L107.036 8.27953L107.375 7.78447L105.167 6.27247L104.828 6.76752ZM106.911 8.08729L107.271 10.0073L107.86 9.89671L107.5 7.97671L106.911 8.08729ZM107.265 9.94916L107.217 15.0132L107.817 15.0188L107.865 9.95484L107.265 9.94916ZM107.218 15.0365L107.41 17.8445L108.009 17.8035L107.817 14.9955L107.218 15.0365ZM113.194 17.656L112.91 17.7509L112.962 17.9065L113.121 17.9468L113.194 17.656ZM114.994 18.112L114.921 18.4028L115.038 18.4326L115.144 18.3722L114.994 18.112ZM117.418 16.72L117.568 16.9802L117.724 16.8907L117.718 16.7111L117.418 16.72ZM117.322 13.48L117.622 13.4711L117.614 13.18H117.322V13.48ZM115.234 13.48V13.18H115.176L115.122 13.2017L115.234 13.48ZM113.386 14.224L113.274 13.9457L113.177 13.985L113.125 14.0765L113.386 14.224ZM112.546 15.712L112.285 15.5645L112.22 15.6805L112.262 15.8069L112.546 15.712ZM119.386 14.632L119.086 14.6334L119.087 14.6469L119.386 14.632ZM119.554 18.016L119.255 18.0309L119.267 18.2775L119.511 18.3129L119.554 18.016ZM121.21 18.256L121.504 18.3183L121.57 18.005L121.253 17.9591L121.21 18.256ZM121.042 19.048L121.068 19.3469L121.29 19.3278L121.336 19.1103L121.042 19.048ZM117.706 19.336L117.413 19.4006L117.47 19.6575L117.732 19.6349L117.706 19.336ZM117.394 17.92L117.687 17.8554L117.635 17.62H117.394V17.92ZM117.274 17.92V17.62H117.192L117.121 17.6623L117.274 17.92ZM114.898 19.336V19.636H114.981L115.052 19.5937L114.898 19.336ZM112.402 19.336L112.226 19.5785L112.305 19.636H112.402V19.336ZM110.722 18.112L110.429 18.1749L110.453 18.287L110.546 18.3545L110.722 18.112ZM110.218 15.76L109.957 15.6126L109.901 15.7117L109.925 15.8229L110.218 15.76ZM111.274 13.888L111.155 13.6127L111.063 13.6528L111.013 13.7406L111.274 13.888ZM114.154 12.64L114.143 12.3402L114.087 12.3423L114.035 12.3647L114.154 12.64ZM117.322 12.52L117.334 12.8198L117.632 12.8085L117.622 12.5104L117.322 12.52ZM117.226 9.52L117.526 9.5104L117.525 9.47038L117.513 9.4321L117.226 9.52ZM116.77 8.032L117.057 7.9441L117.009 7.788L116.852 7.74341L116.77 8.032ZM114.826 7.48L114.908 7.19141L114.833 7.17007L114.757 7.18809L114.826 7.48ZM112.498 8.032L112.429 7.74009L112.205 7.79324L112.198 8.02351L112.498 8.032ZM112.426 10.576L112.487 10.8699L112.719 10.8221L112.726 10.5845L112.426 10.576ZM111.49 10.768L111.196 10.8239L111.252 11.1231L111.551 11.0619L111.49 10.768ZM110.866 7.48L110.781 7.19231L110.521 7.26927L110.572 7.53594L110.866 7.48ZM113.626 6.664L113.612 6.36432L113.576 6.36601L113.541 6.37631L113.626 6.664ZM116.722 6.52L116.854 6.2503L116.785 6.21677L116.708 6.22032L116.722 6.52ZM118.594 7.432L118.875 7.32738L118.834 7.21488L118.726 7.1623L118.594 7.432ZM119.362 9.496L119.662 9.4946L119.662 9.44132L119.643 9.39138L119.362 9.496ZM113.121 17.9468L114.921 18.4028L115.068 17.8212L113.268 17.3652L113.121 17.9468ZM115.144 18.3722L117.568 16.9802L117.269 16.4598L114.845 17.8518L115.144 18.3722ZM117.718 16.7111L117.622 13.4711L117.022 13.4889L117.118 16.7289L117.718 16.7111ZM117.322 13.18H115.234V13.78H117.322V13.18ZM115.122 13.2017L113.274 13.9457L113.498 14.5023L115.346 13.7583L115.122 13.2017ZM113.125 14.0765L112.285 15.5645L112.808 15.8595L113.648 14.3715L113.125 14.0765ZM112.262 15.8069L112.91 17.7509L113.479 17.5611L112.831 15.6171L112.262 15.8069ZM119.087 14.6469L119.255 18.0309L119.854 18.0011L119.686 14.6171L119.087 14.6469ZM119.511 18.3129L121.167 18.5529L121.253 17.9591L119.597 17.7191L119.511 18.3129ZM120.917 18.1937L120.749 18.9857L121.336 19.1103L121.504 18.3183L120.917 18.1937ZM121.017 18.7491L117.681 19.0371L117.732 19.6349L121.068 19.3469L121.017 18.7491ZM117.999 19.2714L117.687 17.8554L117.101 17.9846L117.413 19.4006L117.999 19.2714ZM117.394 17.62H117.274V18.22H117.394V17.62ZM117.121 17.6623L114.745 19.0783L115.052 19.5937L117.428 18.1777L117.121 17.6623ZM114.898 19.036H112.402V19.636H114.898V19.036ZM112.579 19.0935L110.899 17.8695L110.546 18.3545L112.226 19.5785L112.579 19.0935ZM111.016 18.0491L110.512 15.6971L109.925 15.8229L110.429 18.1749L111.016 18.0491ZM110.48 15.9074L111.536 14.0354L111.013 13.7406L109.957 15.6126L110.48 15.9074ZM111.394 14.1633L114.274 12.9153L114.035 12.3647L111.155 13.6127L111.394 14.1633ZM114.166 12.9398L117.334 12.8198L117.311 12.2202L114.143 12.3402L114.166 12.9398ZM117.622 12.5104L117.526 9.5104L116.926 9.52959L117.022 12.5296L117.622 12.5104ZM117.513 9.4321L117.057 7.9441L116.483 8.1199L116.939 9.6079L117.513 9.4321ZM116.852 7.74341L114.908 7.19141L114.744 7.76859L116.688 8.32059L116.852 7.74341ZM114.757 7.18809L112.429 7.74009L112.568 8.32391L114.896 7.77191L114.757 7.18809ZM112.198 8.02351L112.126 10.5675L112.726 10.5845L112.798 8.04049L112.198 8.02351ZM112.366 10.2821L111.43 10.4741L111.551 11.0619L112.487 10.8699L112.366 10.2821ZM111.785 10.7121L111.161 7.42406L110.572 7.53594L111.196 10.8239L111.785 10.7121ZM110.951 7.76769L113.711 6.95169L113.541 6.37631L110.781 7.19231L110.951 7.76769ZM113.64 6.96368L116.736 6.81968L116.708 6.22032L113.612 6.36432L113.64 6.96368ZM116.591 6.7897L118.463 7.7017L118.726 7.1623L116.854 6.2503L116.591 6.7897ZM118.313 7.53662L119.081 9.60062L119.643 9.39138L118.875 7.32738L118.313 7.53662ZM119.062 9.4974L119.086 14.6334L119.686 14.6306L119.662 9.4946L119.062 9.4974ZM126.013 4.288L125.713 4.2721L125.713 4.28286L126.013 4.288ZM125.869 12.688L125.569 12.6829L125.568 12.6901L125.569 12.6973L125.869 12.688ZM125.941 15.016L125.64 15.0253L125.641 15.0366L125.941 15.016ZM126.133 17.8L125.833 17.8206L125.848 18.0331L126.053 18.0893L126.133 17.8ZM127.885 18.28L128.182 18.3224L128.219 18.0606L127.964 17.9907L127.885 18.28ZM127.765 19.12L127.752 19.4197L128.023 19.4309L128.062 19.1624L127.765 19.12ZM124.837 19L124.849 18.7003L124.837 18.6997L124.824 18.7003L124.837 19ZM121.909 19.12L121.609 19.1029L121.59 19.4333L121.921 19.4197L121.909 19.12ZM121.957 18.28L121.87 17.9929L121.669 18.0537L121.657 18.2629L121.957 18.28ZM123.541 17.8L123.628 18.0871L123.83 18.0257L123.84 17.8143L123.541 17.8ZM123.661 15.28L123.96 15.2943L123.961 15.2855L123.661 15.28ZM123.757 10.024L124.057 10.0295L124.056 10.0159L123.757 10.024ZM123.613 4.672L123.913 4.66393L123.912 4.65702L123.613 4.672ZM123.493 2.272L123.792 2.25702L123.777 1.9597L123.48 1.97227L123.493 2.272ZM121.789 2.344L121.492 2.38643L121.53 2.65519L121.801 2.64373L121.789 2.344ZM121.669 1.504L121.611 1.20958L121.331 1.2643L121.372 1.54643L121.669 1.504ZM124.981 0.855999L125.045 0.563005L124.984 0.549612L124.923 0.561581L124.981 0.855999ZM126.181 1.12L126.48 1.13589L126.494 0.881697L126.245 0.827005L126.181 1.12ZM125.713 4.28286L125.569 12.6829L126.169 12.6931L126.313 4.29314L125.713 4.28286ZM125.569 12.6973L125.641 15.0253L126.24 15.0067L126.168 12.6787L125.569 12.6973ZM125.641 15.0366L125.833 17.8206L126.432 17.7794L126.24 14.9954L125.641 15.0366ZM126.053 18.0893L127.805 18.5693L127.964 17.9907L126.212 17.5107L126.053 18.0893ZM127.588 18.2376L127.468 19.0776L128.062 19.1624L128.182 18.3224L127.588 18.2376ZM127.777 18.8203L124.849 18.7003L124.824 19.2997L127.752 19.4197L127.777 18.8203ZM124.824 18.7003L121.896 18.8203L121.921 19.4197L124.849 19.2997L124.824 18.7003ZM122.208 19.1371L122.256 18.2971L121.657 18.2629L121.609 19.1029L122.208 19.1371ZM122.044 18.5671L123.628 18.0871L123.454 17.5129L121.87 17.9929L122.044 18.5671ZM123.84 17.8143L123.96 15.2943L123.361 15.2657L123.241 17.7857L123.84 17.8143ZM123.961 15.2855L124.057 10.0295L123.457 10.0185L123.361 15.2745L123.961 15.2855ZM124.056 10.0159L123.912 4.66393L123.313 4.68007L123.457 10.0321L124.056 10.0159ZM123.912 4.65702L123.792 2.25702L123.193 2.28698L123.313 4.68698L123.912 4.65702ZM123.48 1.97227L121.776 2.04427L121.801 2.64373L123.505 2.57173L123.48 1.97227ZM122.086 2.30157L121.966 1.46157L121.372 1.54643L121.492 2.38643L122.086 2.30157ZM121.726 1.79842L125.038 1.15042L124.923 0.561581L121.611 1.20958L121.726 1.79842ZM124.916 1.14899L126.116 1.41299L126.245 0.827005L125.045 0.563005L124.916 1.14899ZM125.881 1.10411L125.713 4.27211L126.312 4.30389L126.48 1.13589L125.881 1.10411Z" fill="#F257D2"/>
</svg>
