<svg width="28" height="28" viewBox="0 0 28 28" fill="none" xmlns="http://www.w3.org/2000/svg">
<path d="M7.7189 6.13806C7.7864 7.13931 7.95515 8.11806 8.22515 9.05181L6.87515 10.4018C6.4139 9.05181 6.1214 7.62306 6.02015 6.13806H7.7189ZM18.8114 19.6606C19.7677 19.9306 20.7464 20.0993 21.7364 20.1668V21.8431C20.2514 21.7418 18.8227 21.4493 17.4614 20.9993L18.8114 19.6606ZM8.7989 3.88806H4.8614C4.24265 3.88806 3.7364 4.39431 3.7364 5.01306C3.7364 15.5768 12.2977 24.1381 22.8614 24.1381C23.4802 24.1381 23.9864 23.6318 23.9864 23.0131V19.0868C23.9864 18.4681 23.4802 17.9618 22.8614 17.9618C21.4664 17.9618 20.1052 17.7368 18.8452 17.3206C18.7335 17.2801 18.6152 17.261 18.4964 17.2643C18.2039 17.2643 17.9227 17.3768 17.6977 17.5906L15.2227 20.0656C12.0338 18.4347 9.43971 15.8407 7.8089 12.6518L10.2839 10.1768C10.5989 9.86181 10.6889 9.42306 10.5652 9.02931C10.1384 7.73337 9.9219 6.37746 9.9239 5.01306C9.9239 4.39431 9.41765 3.88806 8.7989 3.88806Z" fill="#560F47"/>
</svg>
