<svg width="28" height="28" viewBox="0 0 28 28" fill="none" xmlns="http://www.w3.org/2000/svg">
<path d="M2.36149 7.76306C2.36149 7.16632 2.59854 6.59403 3.0205 6.17207C3.44245 5.75011 4.01475 5.51306 4.61149 5.51306H22.6115C23.2082 5.51306 23.7805 5.75011 24.2025 6.17207C24.6244 6.59403 24.8615 7.16632 24.8615 7.76306V21.2631C24.8615 21.8598 24.6244 22.4321 24.2025 22.8541C23.7805 23.276 23.2082 23.5131 22.6115 23.5131H4.61149C4.01475 23.5131 3.44245 23.276 3.0205 22.8541C2.59854 22.4321 2.36149 21.8598 2.36149 21.2631V7.76306ZM6.32036 7.76306L13.6115 14.1429L20.9026 7.76306H6.32036ZM22.6115 9.25819L14.3529 16.4852C14.1477 16.6649 13.8842 16.764 13.6115 16.764C13.3387 16.764 13.0753 16.6649 12.8701 16.4852L4.61149 9.25819V21.2631H22.6115V9.25819Z" fill="#560F47"/>
</svg>
