<svg width="21" height="26" viewBox="0 0 21 26" fill="none" xmlns="http://www.w3.org/2000/svg">
<path d="M10.3615 6.23037C11.3087 6.23037 12.2171 6.56502 12.8869 7.16069C13.5566 7.75636 13.9329 8.56426 13.9329 9.40666C13.9329 9.82378 13.8405 10.2368 13.6611 10.6222C13.4816 11.0075 13.2185 11.3577 12.8869 11.6526C12.5552 11.9476 12.1615 12.1815 11.7282 12.3412C11.2949 12.5008 10.8305 12.5829 10.3615 12.5829C9.41428 12.5829 8.50587 12.2483 7.8361 11.6526C7.16633 11.057 6.79005 10.2491 6.79005 9.40666C6.79005 8.56426 7.16633 7.75636 7.8361 7.16069C8.50587 6.56502 9.41428 6.23037 10.3615 6.23037ZM10.3615 0.513062C13.0136 0.513062 15.5572 1.45006 17.4325 3.11794C19.3079 4.78581 20.3615 7.04793 20.3615 9.40666C20.3615 16.0769 10.3615 25.9233 10.3615 25.9233C10.3615 25.9233 0.361481 16.0769 0.361481 9.40666C0.361481 7.04793 1.41505 4.78581 3.29041 3.11794C5.16578 1.45006 7.70932 0.513062 10.3615 0.513062ZM10.3615 3.05409C8.46708 3.05409 6.65026 3.72338 5.31072 4.91471C3.97117 6.10605 3.21862 7.72185 3.21862 9.40666C3.21862 10.6772 3.21862 13.2182 10.3615 21.7433C17.5043 13.2182 17.5043 10.6772 17.5043 9.40666C17.5043 7.72185 16.7518 6.10605 15.4122 4.91471C14.0727 3.72338 12.2559 3.05409 10.3615 3.05409Z" fill="#560F47"/>
</svg>
