<svg width="51" height="51" viewBox="0 0 51 51" fill="none" xmlns="http://www.w3.org/2000/svg">
<g clip-path="url(#clip0_51_38)">
<path d="M50.3616 25.666C50.3616 11.7746 39.1686 0.513184 25.3616 0.513184C11.5545 0.513184 0.361572 11.7744 0.361572 25.666C0.361572 38.2203 9.50376 48.6263 21.4553 50.5132V32.9367H15.1077V25.666H21.4553V20.1245C21.4553 13.8206 25.1877 10.3385 30.8981 10.3385C33.6334 10.3385 36.4944 10.8298 36.4944 10.8298V17.0197H33.342C30.2362 17.0197 29.2678 18.9586 29.2678 20.9479V25.666H36.2014L35.093 32.9367H29.2678V50.5132C41.2194 48.6263 50.3616 38.2205 50.3616 25.666Z" fill="#1877F2"/>
<path d="M35.093 32.7397L36.2014 25.5132H29.2678V20.8237C29.2678 18.8464 30.2364 16.9194 33.342 16.9194H36.4944V10.7671C36.4944 10.7671 33.6334 10.2788 30.8981 10.2788C25.1877 10.2788 21.4553 13.7397 21.4553 20.0054V25.5132H15.1077V32.7397H21.4553V50.2095C22.7475 50.412 24.0536 50.5135 25.3616 50.5132C26.6696 50.5136 27.9756 50.412 29.2678 50.2095V32.7397H35.093Z" fill="white"/>
</g>
<defs>
<clipPath id="clip0_51_38">
<rect width="50" height="50" fill="white" transform="translate(0.361572 0.513184)"/>
</clipPath>
</defs>
</svg>
