<svg width="51" height="51" viewBox="0 0 51 51" fill="none" xmlns="http://www.w3.org/2000/svg">
<g clip-path="url(#clip0_51_41)">
<path d="M38.6428 0.513184H12.0803C5.60824 0.513184 0.361572 5.75985 0.361572 12.2319V38.7944C0.361572 45.2665 5.60824 50.5132 12.0803 50.5132H38.6428C45.1149 50.5132 50.3616 45.2665 50.3616 38.7944V12.2319C50.3616 5.75985 45.1149 0.513184 38.6428 0.513184Z" fill="url(#paint0_radial_51_41)"/>
<path d="M38.6428 0.513184H12.0803C5.60824 0.513184 0.361572 5.75985 0.361572 12.2319V38.7944C0.361572 45.2665 5.60824 50.5132 12.0803 50.5132H38.6428C45.1149 50.5132 50.3616 45.2665 50.3616 38.7944V12.2319C50.3616 5.75985 45.1149 0.513184 38.6428 0.513184Z" fill="url(#paint1_radial_51_41)"/>
<path d="M25.3633 5.98193C20.059 5.98193 19.3932 6.00518 17.31 6.0999C15.2307 6.19521 13.8114 6.52432 12.5696 7.00732C11.2848 7.50615 10.1952 8.17353 9.10962 9.25947C8.0231 10.3452 7.35571 11.4349 6.85532 12.719C6.37095 13.9612 6.04145 15.3812 5.9479 17.4595C5.85474 19.5429 5.83032 20.2089 5.83032 25.5134C5.83032 30.8179 5.85376 31.4815 5.94829 33.5647C6.04399 35.644 6.3731 37.0634 6.85571 38.3052C7.35493 39.5899 8.02231 40.6796 9.10825 41.7651C10.1936 42.8517 11.2833 43.5206 12.567 44.0194C13.8098 44.5024 15.2293 44.8315 17.3083 44.9269C19.3917 45.0216 20.0569 45.0448 25.361 45.0448C30.6659 45.0448 31.3295 45.0216 33.4127 44.9269C35.492 44.8315 36.9129 44.5024 38.1557 44.0194C39.4399 43.5206 40.528 42.8517 41.6131 41.7651C42.6997 40.6796 43.3668 39.5899 43.8674 38.3058C44.3475 37.0634 44.6772 35.6437 44.7749 33.5651C44.8684 31.4819 44.8928 30.8179 44.8928 25.5134C44.8928 20.2089 44.8684 19.5433 44.7749 17.4599C44.6772 15.3806 44.3475 13.9614 43.8674 12.7196C43.3668 11.4349 42.6997 10.3452 41.6131 9.25947C40.5268 8.17314 39.4403 7.50576 38.1545 7.00752C36.9094 6.52432 35.4893 6.19502 33.41 6.0999C31.3266 6.00518 30.6633 5.98193 25.3573 5.98193H25.3633ZM23.6112 9.50166C24.1313 9.50088 24.7116 9.50166 25.3633 9.50166C30.5784 9.50166 31.1963 9.52041 33.2557 9.61397C35.16 9.70107 36.1936 10.0192 36.8821 10.2866C37.7936 10.6405 38.4434 11.0638 39.1266 11.7476C39.8102 12.4312 40.2333 13.0821 40.5881 13.9937C40.8555 14.6812 41.1741 15.7147 41.2608 17.619C41.3543 19.678 41.3747 20.2964 41.3747 25.5089C41.3747 30.7214 41.3543 31.3399 41.2608 33.3987C41.1737 35.303 40.8555 36.3366 40.5881 37.0243C40.2342 37.9358 39.8102 38.5849 39.1266 39.2681C38.443 39.9517 37.794 40.3747 36.8821 40.7288C36.1944 40.9974 35.16 41.3147 33.2557 41.4019C31.1967 41.4954 30.5784 41.5157 25.3633 41.5157C20.1481 41.5157 19.5299 41.4954 17.4711 41.4019C15.5668 41.314 14.5333 40.9958 13.8442 40.7284C12.9329 40.3743 12.2817 39.9513 11.5981 39.2677C10.9145 38.5841 10.4915 37.9347 10.1366 37.0228C9.86919 36.3351 9.55063 35.3015 9.46392 33.3972C9.37036 31.3382 9.35161 30.7198 9.35161 25.504C9.35161 20.2884 9.37036 19.6731 9.46392 17.6142C9.55103 15.7099 9.86919 14.6763 10.1366 13.9878C10.4907 13.0763 10.9145 12.4253 11.5983 11.7417C12.2819 11.0581 12.9329 10.6349 13.8444 10.2802C14.5329 10.0116 15.5668 9.69424 17.4711 9.60674C19.2729 9.52529 19.9711 9.50088 23.6112 9.49678V9.50166ZM35.7891 12.7446C34.4952 12.7446 33.4454 13.7935 33.4454 15.0876C33.4454 16.3815 34.4952 17.4313 35.7891 17.4313C37.0831 17.4313 38.1329 16.3815 38.1329 15.0876C38.1329 13.7937 37.0831 12.7438 35.7891 12.7438V12.7446ZM25.3633 15.4831C19.8243 15.4831 15.3333 19.9741 15.3333 25.5134C15.3333 31.0526 19.8243 35.5415 25.3633 35.5415C30.9026 35.5415 35.392 31.0526 35.392 25.5134C35.392 19.9743 30.9022 15.4831 25.3629 15.4831H25.3633ZM25.3633 19.0028C28.9588 19.0028 31.8739 21.9175 31.8739 25.5134C31.8739 29.1089 28.9588 32.0239 25.3633 32.0239C21.7676 32.0239 18.853 29.1089 18.853 25.5134C18.853 21.9175 21.7676 19.0028 25.3633 19.0028Z" fill="white"/>
</g>
<defs>
<radialGradient id="paint0_radial_51_41" cx="0" cy="0" r="1" gradientUnits="userSpaceOnUse" gradientTransform="translate(13.6428 54.3642) rotate(-90) scale(49.5537 46.0889)">
<stop stop-color="#FFDD55"/>
<stop offset="0.1" stop-color="#FFDD55"/>
<stop offset="0.5" stop-color="#FF543E"/>
<stop offset="1" stop-color="#C837AB"/>
</radialGradient>
<radialGradient id="paint1_radial_51_41" cx="0" cy="0" r="1" gradientUnits="userSpaceOnUse" gradientTransform="translate(-8.01362 4.11494) rotate(78.681) scale(22.1508 91.3062)">
<stop stop-color="#3771C8"/>
<stop offset="0.128" stop-color="#3771C8"/>
<stop offset="1" stop-color="#6600FF" stop-opacity="0"/>
</radialGradient>
<clipPath id="clip0_51_41">
<rect width="50" height="50" fill="white" transform="translate(0.361572 0.513184)"/>
</clipPath>
</defs>
</svg>
