<svg width="51" height="51" viewBox="0 0 51 51" fill="none" xmlns="http://www.w3.org/2000/svg">
<g clip-path="url(#clip0_51_54)">
<path d="M38.6428 0.513184H12.0803C5.6082 0.513184 0.361542 5.75985 0.361542 12.2319V38.7944C0.361542 45.2665 5.6082 50.5132 12.0803 50.5132H38.6428C45.1149 50.5132 50.3615 45.2665 50.3615 38.7944V12.2319C50.3615 5.75985 45.1149 0.513184 38.6428 0.513184Z" fill="white"/>
<path d="M38.6428 0.513184H12.0803C5.6082 0.513184 0.361542 5.75985 0.361542 12.2319V38.7944C0.361542 45.2665 5.6082 50.5132 12.0803 50.5132H38.6428C45.1149 50.5132 50.3615 45.2665 50.3615 38.7944V12.2319C50.3615 5.75985 45.1149 0.513184 38.6428 0.513184Z" fill="#1D9BF0"/>
<path d="M39.3404 18.3669C39.3619 18.6768 39.3619 18.9868 39.3619 19.2997C39.3619 28.8304 32.1065 39.8222 18.8395 39.8222V39.8163C14.9202 39.822 11.0821 38.6995 7.78342 36.5829C8.35334 36.6515 8.92599 36.6856 9.50021 36.687C12.7486 36.6896 15.9035 35.6 18.458 33.5934C16.9529 33.565 15.4944 33.0669 14.2862 32.1689C13.0781 31.2708 12.1808 30.0177 11.7197 28.5847C12.8004 28.793 13.9144 28.7505 14.976 28.4604C11.6112 27.7806 9.19025 24.8241 9.19025 21.3905V21.2991C10.1934 21.8578 11.316 22.1674 12.4637 22.2018C9.29455 20.0837 8.3176 15.8675 10.2313 12.571C12.0421 14.7993 14.3014 16.6218 16.8624 17.92C19.4235 19.2183 22.229 19.9632 25.0967 20.1065C24.8108 18.8758 24.853 17.5915 25.2192 16.3821C25.5853 15.1728 26.2626 14.0808 27.1832 13.2153C30.0883 10.4845 34.6572 10.6245 37.3881 13.528C39.0033 13.2091 40.5523 12.617 41.9684 11.777C41.4299 13.4471 40.3031 14.8647 38.7977 15.7661C40.2275 15.5977 41.6238 15.2149 42.9397 14.6308C41.9717 16.0804 40.7529 17.3454 39.3404 18.3669Z" fill="white"/>
</g>
<defs>
<clipPath id="clip0_51_54">
<rect width="50" height="50" fill="white" transform="translate(0.361542 0.513184)"/>
</clipPath>
</defs>
</svg>
